<?xml version="1.0" encoding="iso-8859-1"?>
<!-- Generator: Adobe Illustrator 16.0.0, SVG Export Plug-In . SVG Version: 6.00 Build 0)  -->
<!DOCTYPE svg PUBLIC "-//W3C//DTD SVG 1.1//EN" "http://www.w3.org/Graphics/SVG/1.1/DTD/svg11.dtd">
<svg version="1.1" id="Layer_1" xmlns="http://www.w3.org/2000/svg" xmlns:xlink="http://www.w3.org/1999/xlink" x="0px" y="0px"
	 width="272px" height="134px" viewBox="155.5 373.5 272 134" style="enable-background:new 155.5 373.5 272 134;"
	 xml:space="preserve">
<rect x="161.605" y="379.947" style="opacity:0.7;fill:#F9B07D;stroke:#047AAB;stroke-width:4;enable-background:new    ;" width="259.932" height="122.368"/>
<rect x="187.054" y="432.264" style="fill:none;" width="212.625" height="54.604"/>
<g style="enable-background:new    ;">
	<path d="M188.289,431.454h1.578c1.036,0,1.883,0.225,2.539,0.675s0.984,1.019,0.984,1.706c0,0.838-0.484,1.537-1.453,2.1
		c1.5,0.5,2.25,1.368,2.25,2.604c0,0.86-0.387,1.553-1.16,2.08c-0.773,0.525-1.809,0.789-3.105,0.789h-1.633V431.454z
		 M189.632,432.657v2.945c0.75-0.011,1.324-0.153,1.723-0.43s0.598-0.656,0.598-1.141c0-0.422-0.18-0.759-0.539-1.012
		s-0.841-0.379-1.445-0.379C189.838,432.642,189.726,432.646,189.632,432.657z M189.632,436.782v3.406h0.109
		c1.172,0,1.971-0.188,2.398-0.562c0.427-0.375,0.641-0.758,0.641-1.148c0-0.516-0.24-0.927-0.719-1.234
		c-0.479-0.308-1.136-0.461-1.969-0.461H189.632z"/>
	<path d="M195.546,434.962h1.542l2.338,3.502l1.616-3.502h1.402l-4.354,9.469h-1.419l2.128-4.61L195.546,434.962z"/>
	<path d="M209.89,434.962v1.328c0.302-0.531,0.598-0.915,0.887-1.152s0.665-0.355,1.129-0.355c0.13,0,0.317,0.031,0.562,0.094
		l-0.414,1.359c-0.261-0.052-0.433-0.078-0.516-0.078c-0.458,0-0.843,0.16-1.152,0.48c-0.31,0.32-0.465,0.72-0.465,1.199v3.57
		h-1.359v-6.445H209.89z"/>
	<path d="M220.14,438.446h-5.5c0.12,0.661,0.392,1.145,0.816,1.449c0.424,0.305,0.887,0.457,1.387,0.457
		c0.771,0,1.417-0.32,1.938-0.961l0.992,0.75c-0.745,0.964-1.742,1.445-2.992,1.445c-0.958,0-1.761-0.328-2.406-0.984
		c-0.646-0.656-0.969-1.472-0.969-2.445c0-0.911,0.327-1.702,0.98-2.371c0.653-0.669,1.452-1.004,2.395-1.004
		c0.927,0,1.721,0.34,2.383,1.02C219.825,436.481,220.15,437.363,220.14,438.446z M214.781,437.36h3.938
		c-0.438-0.886-1.083-1.328-1.938-1.328C215.848,436.032,215.182,436.475,214.781,437.36z"/>
	<path d="M227.07,434.962h1.328v6.188c0,0.911-0.314,1.687-0.941,2.324c-0.628,0.638-1.387,0.957-2.277,0.957
		c-0.677,0-1.3-0.184-1.867-0.551c-0.568-0.367-0.984-0.926-1.25-1.676h1.406c0.422,0.698,1.008,1.047,1.758,1.047
		c0.51,0,0.945-0.184,1.305-0.551s0.539-0.809,0.539-1.324v-1.219c-0.656,0.953-1.484,1.43-2.484,1.43
		c-0.823,0-1.541-0.34-2.152-1.02c-0.612-0.68-0.918-1.483-0.918-2.41s0.298-1.722,0.895-2.383c0.596-0.661,1.306-0.992,2.129-0.992
		c1.062,0,1.906,0.513,2.531,1.539V434.962z M227.257,438.173c0-0.604-0.21-1.109-0.629-1.516c-0.419-0.406-0.939-0.609-1.559-0.609
		c-0.568,0-1.068,0.211-1.5,0.633c-0.433,0.422-0.648,0.909-0.648,1.461c0,0.599,0.213,1.114,0.641,1.547
		c0.427,0.433,0.935,0.648,1.523,0.648c0.599,0,1.11-0.211,1.535-0.633C227.045,439.282,227.257,438.771,227.257,438.173z"/>
	<path d="M230.281,432.845c0-0.281,0.104-0.524,0.312-0.73c0.208-0.206,0.456-0.309,0.742-0.309c0.281,0,0.524,0.103,0.73,0.309
		c0.206,0.206,0.309,0.449,0.309,0.73c0,0.286-0.103,0.531-0.309,0.734c-0.206,0.203-0.449,0.305-0.73,0.305
		c-0.287,0-0.534-0.102-0.742-0.305C230.385,433.376,230.281,433.131,230.281,432.845z M230.664,434.962h1.344v6.445h-1.344V434.962
		z"/>
	<path d="M237.929,435.728l-0.906,0.797c-0.234-0.167-0.438-0.293-0.609-0.379s-0.375-0.129-0.609-0.129
		c-0.552,0-0.828,0.203-0.828,0.609c0,0.292,0.35,0.575,1.051,0.85c0.7,0.274,1.204,0.576,1.512,0.904
		c0.307,0.327,0.461,0.723,0.461,1.186c0,0.541-0.222,1.014-0.664,1.417c-0.443,0.403-0.964,0.604-1.562,0.604
		c-0.912,0-1.659-0.422-2.242-1.266l1.07-0.516c0.375,0.364,0.766,0.547,1.172,0.547c0.281,0,0.527-0.077,0.738-0.23
		s0.316-0.332,0.316-0.535c0-0.359-0.37-0.683-1.109-0.97c-0.74-0.287-1.251-0.577-1.535-0.872
		c-0.284-0.294-0.426-0.657-0.426-1.089c0-0.536,0.202-0.982,0.605-1.339c0.403-0.356,0.91-0.535,1.52-0.535
		S237.174,435.098,237.929,435.728z"/>
	<path d="M239.804,433.087h1.359v1.875h1.344v1.242h-1.344v5.203h-1.359v-5.203h-1.07v-1.258h1.07V433.087z"/>
	<path d="M250.14,438.446h-5.5c0.12,0.661,0.392,1.145,0.816,1.449c0.424,0.305,0.887,0.457,1.387,0.457
		c0.771,0,1.417-0.32,1.938-0.961l0.992,0.75c-0.745,0.964-1.742,1.445-2.992,1.445c-0.958,0-1.761-0.328-2.406-0.984
		c-0.646-0.656-0.969-1.472-0.969-2.445c0-0.911,0.327-1.702,0.98-2.371c0.653-0.669,1.452-1.004,2.395-1.004
		c0.927,0,1.721,0.34,2.383,1.02C249.825,436.481,250.15,437.363,250.14,438.446z M244.781,437.36h3.938
		c-0.438-0.886-1.083-1.328-1.938-1.328C245.848,436.032,245.182,436.475,244.781,437.36z"/>
	<path d="M253.218,434.962v1.328c0.302-0.531,0.598-0.915,0.887-1.152s0.665-0.355,1.129-0.355c0.13,0,0.317,0.031,0.562,0.094
		l-0.414,1.359c-0.261-0.052-0.433-0.078-0.516-0.078c-0.458,0-0.843,0.16-1.152,0.48c-0.31,0.32-0.465,0.72-0.465,1.199v3.57
		h-1.359v-6.445H253.218z"/>
	<path d="M256.781,432.845c0-0.281,0.104-0.524,0.312-0.73c0.208-0.206,0.456-0.309,0.742-0.309c0.281,0,0.524,0.103,0.73,0.309
		c0.206,0.206,0.309,0.449,0.309,0.73c0,0.286-0.103,0.531-0.309,0.734c-0.206,0.203-0.449,0.305-0.73,0.305
		c-0.287,0-0.534-0.102-0.742-0.305C256.885,433.376,256.781,433.131,256.781,432.845z M257.164,434.962h1.344v6.445h-1.344V434.962
		z"/>
	<path d="M260.289,441.407v-6.445h1.328v1.07c0.391-0.433,0.745-0.749,1.062-0.949c0.317-0.2,0.672-0.301,1.062-0.301
		c0.583,0,1.082,0.192,1.496,0.578s0.621,0.849,0.621,1.391v4.656H264.5v-4.258c0-0.349-0.113-0.638-0.34-0.867
		s-0.515-0.344-0.863-0.344c-0.453,0-0.844,0.191-1.172,0.574s-0.492,0.845-0.492,1.387v3.508H260.289z"/>
	<path d="M272.914,434.962h1.328v6.188c0,0.911-0.314,1.687-0.941,2.324c-0.628,0.638-1.387,0.957-2.277,0.957
		c-0.677,0-1.3-0.184-1.867-0.551c-0.568-0.367-0.984-0.926-1.25-1.676h1.406c0.422,0.698,1.008,1.047,1.758,1.047
		c0.51,0,0.945-0.184,1.305-0.551s0.539-0.809,0.539-1.324v-1.219c-0.656,0.953-1.484,1.43-2.484,1.43
		c-0.823,0-1.541-0.34-2.152-1.02c-0.612-0.68-0.918-1.483-0.918-2.41s0.298-1.722,0.895-2.383c0.596-0.661,1.306-0.992,2.129-0.992
		c1.062,0,1.906,0.513,2.531,1.539V434.962z M273.101,438.173c0-0.604-0.21-1.109-0.629-1.516c-0.419-0.406-0.939-0.609-1.559-0.609
		c-0.568,0-1.068,0.211-1.5,0.633c-0.433,0.422-0.648,0.909-0.648,1.461c0,0.599,0.213,1.114,0.641,1.547
		c0.427,0.433,0.935,0.648,1.523,0.648c0.599,0,1.11-0.211,1.535-0.633C272.889,439.282,273.101,438.771,273.101,438.173z"/>
	<path d="M280.375,434.962h1.542l2.338,3.502l1.616-3.502h1.402l-4.354,9.469H281.5l2.128-4.61L280.375,434.962z"/>
	<path d="M287.953,438.157c0-0.88,0.348-1.663,1.043-2.348s1.493-1.027,2.395-1.027c0.927,0,1.737,0.337,2.43,1.012
		c0.692,0.675,1.039,1.462,1.039,2.363c0,0.906-0.34,1.704-1.02,2.395s-1.465,1.035-2.355,1.035c-0.953,0-1.78-0.341-2.48-1.023
		C288.303,439.881,287.953,439.079,287.953,438.157z M293.546,438.161c0-0.548-0.208-1.024-0.625-1.429
		c-0.417-0.404-0.912-0.606-1.484-0.606c-0.589,0-1.095,0.205-1.52,0.614c-0.425,0.41-0.637,0.899-0.637,1.468
		c0,0.543,0.215,1.018,0.645,1.425s0.934,0.61,1.512,0.61c0.562,0,1.055-0.209,1.477-0.626
		C293.335,439.199,293.546,438.714,293.546,438.161z"/>
	<path d="M296.078,434.962h1.359v3.633c0,1.12,0.492,1.68,1.477,1.68c0.438,0,0.784-0.149,1.039-0.449
		c0.255-0.3,0.383-0.71,0.383-1.23v-3.633h1.344v3.852c0,0.808-0.263,1.472-0.789,1.992c-0.526,0.521-1.198,0.781-2.016,0.781
		c-0.833,0-1.508-0.261-2.023-0.781s-0.773-1.2-0.773-2.039V434.962z"/>
	<path d="M313.102,434.962h1.328v6.188c0,0.911-0.314,1.687-0.941,2.324c-0.629,0.638-1.387,0.957-2.277,0.957
		c-0.678,0-1.301-0.184-1.867-0.551c-0.568-0.367-0.984-0.926-1.25-1.676h1.406c0.422,0.698,1.008,1.047,1.758,1.047
		c0.51,0,0.945-0.184,1.305-0.551s0.539-0.809,0.539-1.324v-1.219c-0.656,0.953-1.484,1.43-2.484,1.43
		c-0.824,0-1.541-0.34-2.152-1.02c-0.613-0.68-0.918-1.483-0.918-2.41s0.297-1.722,0.895-2.383c0.596-0.661,1.305-0.992,2.129-0.992
		c1.062,0,1.906,0.513,2.531,1.539V434.962z M313.289,438.173c0-0.604-0.211-1.109-0.629-1.516c-0.42-0.406-0.939-0.609-1.559-0.609
		c-0.568,0-1.068,0.211-1.5,0.633c-0.434,0.422-0.648,0.909-0.648,1.461c0,0.599,0.213,1.114,0.641,1.547
		c0.426,0.433,0.934,0.648,1.523,0.648c0.598,0,1.109-0.211,1.535-0.633C313.076,439.282,313.289,438.771,313.289,438.173z"/>
	<path d="M321.672,434.962h1.359v6.445h-1.359v-1.281c-0.662,0.974-1.482,1.461-2.461,1.461c-0.85,0-1.574-0.333-2.176-1
		s-0.902-1.477-0.902-2.43c0-0.901,0.303-1.688,0.91-2.363c0.605-0.675,1.318-1.012,2.137-1.012c0.504,0,0.984,0.138,1.438,0.414
		s0.805,0.636,1.055,1.078V434.962z M321.859,438.204c0-0.589-0.212-1.093-0.635-1.512c-0.422-0.419-0.928-0.629-1.518-0.629
		c-0.574,0-1.076,0.208-1.504,0.625s-0.641,0.906-0.641,1.469c0,0.609,0.208,1.128,0.625,1.555c0.418,0.427,0.924,0.641,1.52,0.641
		c0.59,0,1.096-0.212,1.518-0.637C321.647,439.291,321.859,438.787,321.859,438.204z"/>
	<path d="M324.82,432.845c0-0.281,0.104-0.524,0.312-0.73c0.207-0.206,0.455-0.309,0.742-0.309c0.281,0,0.523,0.103,0.73,0.309
		c0.205,0.206,0.309,0.449,0.309,0.73c0,0.286-0.104,0.531-0.309,0.734c-0.207,0.203-0.449,0.305-0.73,0.305
		c-0.287,0-0.535-0.102-0.742-0.305C324.924,433.376,324.82,433.131,324.82,432.845z M325.203,434.962h1.344v6.445h-1.344V434.962z"
		/>
	<path d="M328.328,441.407v-6.445h1.328v1.07c0.391-0.433,0.744-0.749,1.062-0.949c0.316-0.2,0.672-0.301,1.062-0.301
		c0.582,0,1.082,0.192,1.496,0.578s0.621,0.849,0.621,1.391v4.656h-1.359v-4.258c0-0.349-0.113-0.638-0.34-0.867
		s-0.516-0.344-0.863-0.344c-0.453,0-0.844,0.191-1.172,0.574s-0.492,0.845-0.492,1.387v3.508H328.328z"/>
	<path d="M345.43,434.962h1.359v6.445h-1.359v-1.281c-0.662,0.974-1.482,1.461-2.461,1.461c-0.85,0-1.574-0.333-2.176-1
		s-0.902-1.477-0.902-2.43c0-0.901,0.303-1.688,0.91-2.363c0.605-0.675,1.318-1.012,2.137-1.012c0.504,0,0.984,0.138,1.438,0.414
		s0.805,0.636,1.055,1.078V434.962z M345.617,438.204c0-0.589-0.212-1.093-0.635-1.512c-0.422-0.419-0.928-0.629-1.518-0.629
		c-0.574,0-1.076,0.208-1.504,0.625s-0.641,0.906-0.641,1.469c0,0.609,0.208,1.128,0.625,1.555c0.418,0.427,0.924,0.641,1.52,0.641
		c0.59,0,1.096-0.212,1.518-0.637C345.405,439.291,345.617,438.787,345.617,438.204z"/>
	<path d="M353.664,439.438v1.555c-0.693,0.396-1.365,0.594-2.016,0.594c-0.891,0-1.672-0.335-2.34-1.004
		c-0.67-0.669-1.004-1.444-1.004-2.324c0-1,0.332-1.829,1-2.488c0.666-0.659,1.502-0.988,2.508-0.988
		c0.598,0,1.215,0.156,1.852,0.469v1.516c-0.684-0.438-1.328-0.656-1.938-0.656c-0.562,0-1.055,0.198-1.477,0.594
		s-0.633,0.859-0.633,1.391c0,0.599,0.197,1.103,0.594,1.512c0.395,0.409,0.879,0.613,1.453,0.613
		C352.246,440.22,352.914,439.959,353.664,439.438z"/>
	<path d="M359.82,439.438v1.555c-0.693,0.396-1.365,0.594-2.016,0.594c-0.891,0-1.672-0.335-2.34-1.004
		c-0.67-0.669-1.004-1.444-1.004-2.324c0-1,0.332-1.829,1-2.488c0.666-0.659,1.502-0.988,2.508-0.988
		c0.598,0,1.215,0.156,1.852,0.469v1.516c-0.684-0.438-1.328-0.656-1.938-0.656c-0.562,0-1.055,0.198-1.477,0.594
		s-0.633,0.859-0.633,1.391c0,0.599,0.197,1.103,0.594,1.512c0.395,0.409,0.879,0.613,1.453,0.613
		C358.402,440.22,359.07,439.959,359.82,439.438z"/>
	<path d="M367.578,438.446h-5.5c0.119,0.661,0.391,1.145,0.816,1.449c0.424,0.305,0.887,0.457,1.387,0.457
		c0.77,0,1.416-0.32,1.938-0.961l0.992,0.75c-0.746,0.964-1.742,1.445-2.992,1.445c-0.959,0-1.762-0.328-2.406-0.984
		c-0.646-0.656-0.969-1.472-0.969-2.445c0-0.911,0.326-1.702,0.98-2.371c0.652-0.669,1.451-1.004,2.395-1.004
		c0.926,0,1.721,0.34,2.383,1.02C367.262,436.481,367.588,437.363,367.578,438.446z M362.219,437.36h3.938
		c-0.438-0.886-1.084-1.328-1.938-1.328C363.285,436.032,362.619,436.475,362.219,437.36z"/>
	<path d="M373.031,435.728l-0.906,0.797c-0.234-0.167-0.438-0.293-0.609-0.379s-0.375-0.129-0.609-0.129
		c-0.553,0-0.828,0.203-0.828,0.609c0,0.292,0.35,0.575,1.051,0.85c0.699,0.274,1.203,0.576,1.512,0.904
		c0.307,0.327,0.461,0.723,0.461,1.186c0,0.541-0.223,1.014-0.664,1.417c-0.443,0.403-0.965,0.604-1.562,0.604
		c-0.912,0-1.66-0.422-2.242-1.266l1.07-0.516c0.375,0.364,0.766,0.547,1.172,0.547c0.281,0,0.527-0.077,0.738-0.23
		s0.316-0.332,0.316-0.535c0-0.359-0.371-0.683-1.109-0.97c-0.74-0.287-1.252-0.577-1.535-0.872
		c-0.285-0.294-0.426-0.657-0.426-1.089c0-0.536,0.201-0.982,0.605-1.339c0.402-0.356,0.91-0.535,1.52-0.535
		S372.275,435.098,373.031,435.728z"/>
	<path d="M378.359,435.728l-0.906,0.797c-0.234-0.167-0.438-0.293-0.609-0.379s-0.375-0.129-0.609-0.129
		c-0.553,0-0.828,0.203-0.828,0.609c0,0.292,0.35,0.575,1.051,0.85c0.699,0.274,1.203,0.576,1.512,0.904
		c0.307,0.327,0.461,0.723,0.461,1.186c0,0.541-0.223,1.014-0.664,1.417c-0.443,0.403-0.965,0.604-1.562,0.604
		c-0.912,0-1.66-0.422-2.242-1.266l1.07-0.516c0.375,0.364,0.766,0.547,1.172,0.547c0.281,0,0.527-0.077,0.738-0.23
		s0.316-0.332,0.316-0.535c0-0.359-0.371-0.683-1.109-0.97c-0.74-0.287-1.252-0.577-1.535-0.872
		c-0.285-0.294-0.426-0.657-0.426-1.089c0-0.536,0.201-0.982,0.605-1.339c0.402-0.356,0.91-0.535,1.52-0.535
		S377.604,435.098,378.359,435.728z"/>
	<path d="M384.648,433.087h1.359v1.875h1.344v1.242h-1.344v5.203h-1.359v-5.203h-1.07v-1.258h1.07V433.087z"/>
	<path d="M388.188,438.157c0-0.88,0.348-1.663,1.043-2.348s1.492-1.027,2.395-1.027c0.926,0,1.736,0.337,2.43,1.012
		c0.691,0.675,1.039,1.462,1.039,2.363c0,0.906-0.34,1.704-1.02,2.395s-1.465,1.035-2.355,1.035c-0.953,0-1.781-0.341-2.48-1.023
		C388.537,439.881,388.188,439.079,388.188,438.157z M393.781,438.161c0-0.548-0.209-1.024-0.625-1.429
		c-0.418-0.404-0.912-0.606-1.484-0.606c-0.59,0-1.096,0.205-1.52,0.614c-0.426,0.41-0.637,0.899-0.637,1.468
		c0,0.543,0.215,1.018,0.645,1.425s0.934,0.61,1.512,0.61c0.562,0,1.055-0.209,1.477-0.626
		C393.57,439.199,393.781,438.714,393.781,438.161z"/>
</g>
<g style="enable-background:new    ;">
	<path d="M189.492,454.162v1.297c0.65-0.984,1.482-1.477,2.497-1.477c0.832,0,1.548,0.332,2.149,0.996
		c0.601,0.664,0.901,1.457,0.901,2.379c0,0.933-0.304,1.737-0.913,2.414c-0.608,0.677-1.326,1.016-2.153,1.016
		c-0.479,0-0.938-0.125-1.377-0.375s-0.802-0.612-1.088-1.086v4.305h-1.359v-9.469H189.492z M193.617,457.357
		c0-0.567-0.213-1.063-0.64-1.488s-0.928-0.637-1.505-0.637c-0.587,0-1.096,0.211-1.524,0.633c-0.429,0.422-0.644,0.919-0.644,1.492
		c0,0.589,0.212,1.099,0.636,1.531c0.423,0.433,0.924,0.648,1.501,0.648c0.598,0,1.11-0.214,1.536-0.641
		S193.617,457.956,193.617,457.357z"/>
	<path d="M196.554,454.162h1.359v3.633c0,1.12,0.492,1.68,1.477,1.68c0.438,0,0.784-0.149,1.039-0.449
		c0.255-0.3,0.383-0.71,0.383-1.23v-3.633h1.344v3.852c0,0.808-0.263,1.472-0.789,1.992c-0.526,0.521-1.198,0.781-2.016,0.781
		c-0.833,0-1.508-0.261-2.023-0.781s-0.773-1.2-0.773-2.039V454.162z"/>
	<path d="M204.007,450.467h1.344v4.969c0.578-0.969,1.406-1.453,2.484-1.453c0.833,0,1.556,0.333,2.168,1
		c0.612,0.667,0.918,1.458,0.918,2.375s-0.301,1.718-0.902,2.402s-1.304,1.027-2.105,1.027c-0.516,0-1.005-0.138-1.469-0.414
		c-0.464-0.276-0.828-0.651-1.094-1.125v1.359h-1.344V450.467z M209.484,457.357c0-0.589-0.211-1.093-0.633-1.512
		s-0.933-0.629-1.531-0.629c-0.578,0-1.08,0.212-1.504,0.637c-0.425,0.425-0.637,0.926-0.637,1.504c0,0.604,0.212,1.113,0.637,1.527
		c0.424,0.414,0.946,0.621,1.566,0.621c0.573,0,1.066-0.211,1.48-0.633S209.484,457.946,209.484,457.357z"/>
	<path d="M212.812,450.467h1.359v10.141h-1.359V450.467z"/>
	<path d="M215.882,452.045c0-0.281,0.104-0.524,0.312-0.73c0.208-0.206,0.456-0.309,0.742-0.309c0.281,0,0.524,0.103,0.73,0.309
		c0.206,0.206,0.309,0.449,0.309,0.73c0,0.286-0.103,0.531-0.309,0.734c-0.206,0.203-0.449,0.305-0.73,0.305
		c-0.287,0-0.534-0.102-0.742-0.305C215.986,452.576,215.882,452.331,215.882,452.045z M216.265,454.162h1.344v6.445h-1.344V454.162
		z"/>
	<path d="M223.531,454.928l-0.906,0.797c-0.234-0.167-0.438-0.293-0.609-0.379s-0.375-0.129-0.609-0.129
		c-0.552,0-0.828,0.203-0.828,0.609c0,0.292,0.35,0.575,1.051,0.85c0.7,0.274,1.204,0.576,1.512,0.904
		c0.307,0.327,0.461,0.723,0.461,1.186c0,0.541-0.222,1.014-0.664,1.417c-0.443,0.403-0.964,0.604-1.562,0.604
		c-0.912,0-1.659-0.422-2.242-1.266l1.07-0.516c0.375,0.364,0.766,0.547,1.172,0.547c0.281,0,0.527-0.077,0.738-0.23
		s0.316-0.332,0.316-0.535c0-0.359-0.37-0.683-1.109-0.97c-0.74-0.287-1.251-0.577-1.535-0.872
		c-0.284-0.294-0.426-0.657-0.426-1.089c0-0.536,0.202-0.982,0.605-1.339c0.403-0.356,0.91-0.535,1.52-0.535
		S222.775,454.298,223.531,454.928z"/>
	<path d="M224.671,450.467h1.359v4.75c0.375-0.433,0.725-0.746,1.051-0.941c0.325-0.195,0.723-0.293,1.191-0.293
		c0.547,0,1.02,0.21,1.418,0.629s0.598,0.921,0.598,1.504v4.492h-1.359v-4.109c0-0.406-0.103-0.731-0.309-0.977
		c-0.206-0.245-0.478-0.367-0.816-0.367c-0.49,0-0.908,0.185-1.254,0.555c-0.347,0.37-0.52,0.817-0.52,1.344v3.555h-1.359V450.467z"
		/>
	<path d="M238.414,457.646h-5.5c0.12,0.661,0.392,1.145,0.816,1.449c0.424,0.305,0.887,0.457,1.387,0.457
		c0.771,0,1.417-0.32,1.938-0.961l0.992,0.75c-0.745,0.964-1.742,1.445-2.992,1.445c-0.958,0-1.761-0.328-2.406-0.984
		c-0.646-0.656-0.969-1.472-0.969-2.445c0-0.911,0.327-1.702,0.98-2.371c0.653-0.669,1.452-1.004,2.395-1.004
		c0.927,0,1.721,0.34,2.383,1.02C238.098,455.682,238.424,456.563,238.414,457.646z M233.054,456.561h3.938
		c-0.438-0.886-1.083-1.328-1.938-1.328C234.122,455.232,233.455,455.675,233.054,456.561z"/>
	<path d="M245.382,450.467h1.344v10.141h-1.328v-1.344c-0.642,1.016-1.481,1.523-2.519,1.523c-0.84,0-1.56-0.336-2.16-1.008
		c-0.6-0.672-0.899-1.479-0.899-2.422c0-0.922,0.305-1.715,0.915-2.379c0.61-0.664,1.338-0.996,2.183-0.996
		c0.506,0,0.978,0.141,1.416,0.422s0.788,0.648,1.048,1.102V450.467z M245.539,457.373c0-0.578-0.211-1.079-0.634-1.504
		c-0.423-0.425-0.926-0.637-1.511-0.637c-0.605,0-1.118,0.207-1.538,0.621s-0.63,0.921-0.63,1.52c0,0.573,0.214,1.074,0.642,1.504
		s0.926,0.645,1.495,0.645c0.605,0,1.119-0.208,1.542-0.625C245.327,458.479,245.539,457.972,245.539,457.373z"/>
	<path d="M258.648,454.162h1.359v6.445h-1.359v-1.281c-0.662,0.974-1.482,1.461-2.461,1.461c-0.849,0-1.574-0.333-2.176-1
		s-0.902-1.477-0.902-2.43c0-0.901,0.303-1.688,0.91-2.363c0.606-0.675,1.319-1.012,2.137-1.012c0.505,0,0.984,0.138,1.438,0.414
		s0.805,0.636,1.055,1.078V454.162z M258.835,457.404c0-0.589-0.211-1.093-0.634-1.512c-0.423-0.419-0.929-0.629-1.519-0.629
		c-0.574,0-1.075,0.208-1.503,0.625s-0.642,0.906-0.642,1.469c0,0.609,0.208,1.128,0.626,1.555s0.924,0.641,1.519,0.641
		c0.59,0,1.096-0.212,1.519-0.637C258.624,458.491,258.835,457.987,258.835,457.404z"/>
	<path d="M263.562,454.162v1.328c0.302-0.531,0.598-0.915,0.887-1.152s0.665-0.355,1.129-0.355c0.13,0,0.317,0.031,0.562,0.094
		l-0.414,1.359c-0.261-0.052-0.433-0.078-0.516-0.078c-0.458,0-0.843,0.16-1.152,0.48c-0.31,0.32-0.465,0.72-0.465,1.199v3.57
		h-1.359v-6.445H263.562z"/>
	<path d="M268.132,452.287h1.359v1.875h1.344v1.242h-1.344v5.203h-1.359v-5.203h-1.07v-1.258h1.07V452.287z"/>
	<path d="M271.781,452.045c0-0.281,0.104-0.524,0.312-0.73c0.208-0.206,0.456-0.309,0.742-0.309c0.281,0,0.524,0.103,0.73,0.309
		c0.206,0.206,0.309,0.449,0.309,0.73c0,0.286-0.103,0.531-0.309,0.734c-0.206,0.203-0.449,0.305-0.73,0.305
		c-0.287,0-0.534-0.102-0.742-0.305C271.885,452.576,271.781,452.331,271.781,452.045z M272.164,454.162h1.344v6.445h-1.344V454.162
		z"/>
	<path d="M280.375,458.639v1.555c-0.693,0.396-1.365,0.594-2.016,0.594c-0.891,0-1.671-0.335-2.34-1.004
		c-0.669-0.669-1.004-1.444-1.004-2.324c0-1,0.333-1.829,1-2.488c0.667-0.659,1.502-0.988,2.508-0.988
		c0.599,0,1.216,0.156,1.852,0.469v1.516c-0.683-0.438-1.328-0.656-1.938-0.656c-0.562,0-1.055,0.198-1.477,0.594
		s-0.633,0.859-0.633,1.391c0,0.599,0.198,1.103,0.594,1.512c0.396,0.409,0.88,0.613,1.453,0.613
		C278.958,459.42,279.625,459.159,280.375,458.639z"/>
	<path d="M281.882,450.467h1.359v10.141h-1.359V450.467z"/>
	<path d="M291.64,457.646h-5.5c0.12,0.661,0.392,1.145,0.816,1.449c0.424,0.305,0.887,0.457,1.387,0.457
		c0.771,0,1.417-0.32,1.938-0.961l0.992,0.75c-0.745,0.964-1.742,1.445-2.992,1.445c-0.958,0-1.761-0.328-2.406-0.984
		c-0.646-0.656-0.969-1.472-0.969-2.445c0-0.911,0.327-1.702,0.98-2.371c0.653-0.669,1.452-1.004,2.395-1.004
		c0.927,0,1.721,0.34,2.383,1.02C291.325,455.682,291.65,456.563,291.64,457.646z M286.281,456.561h3.938
		c-0.438-0.886-1.083-1.328-1.938-1.328C287.348,455.232,286.682,455.675,286.281,456.561z"/>
	<path d="M297.093,454.928l-0.906,0.797c-0.234-0.167-0.438-0.293-0.609-0.379s-0.375-0.129-0.609-0.129
		c-0.552,0-0.828,0.203-0.828,0.609c0,0.292,0.35,0.575,1.051,0.85c0.7,0.274,1.204,0.576,1.512,0.904
		c0.307,0.327,0.461,0.723,0.461,1.186c0,0.541-0.222,1.014-0.664,1.417c-0.443,0.403-0.964,0.604-1.562,0.604
		c-0.912,0-1.659-0.422-2.242-1.266l1.07-0.516c0.375,0.364,0.766,0.547,1.172,0.547c0.281,0,0.527-0.077,0.738-0.23
		s0.316-0.332,0.316-0.535c0-0.359-0.37-0.683-1.109-0.97c-0.74-0.287-1.251-0.577-1.535-0.872
		c-0.284-0.294-0.426-0.657-0.426-1.089c0-0.536,0.202-0.982,0.605-1.339c0.403-0.356,0.91-0.535,1.52-0.535
		S296.338,454.298,297.093,454.928z"/>
	<path d="M302.71,454.162h1.359v3.633c0,1.12,0.492,1.68,1.477,1.68c0.438,0,0.784-0.149,1.04-0.449
		c0.254-0.3,0.383-0.71,0.383-1.23v-3.633h1.344v3.852c0,0.808-0.264,1.472-0.789,1.992c-0.527,0.521-1.199,0.781-2.016,0.781
		c-0.833,0-1.508-0.261-2.023-0.781s-0.773-1.2-0.773-2.039V454.162z"/>
	<path d="M309.703,460.607v-6.445h1.328v1.07c0.391-0.433,0.744-0.749,1.062-0.949c0.316-0.2,0.672-0.301,1.062-0.301
		c0.582,0,1.082,0.192,1.496,0.578s0.621,0.849,0.621,1.391v4.656h-1.359v-4.258c0-0.349-0.113-0.638-0.34-0.867
		s-0.516-0.344-0.863-0.344c-0.453,0-0.844,0.191-1.172,0.574s-0.492,0.845-0.492,1.387v3.508H309.703z"/>
	<path d="M322.391,454.162h1.359v6.445h-1.359v-1.281c-0.662,0.974-1.482,1.461-2.461,1.461c-0.85,0-1.574-0.333-2.176-1
		s-0.902-1.477-0.902-2.43c0-0.901,0.303-1.688,0.91-2.363c0.605-0.675,1.318-1.012,2.137-1.012c0.504,0,0.984,0.138,1.438,0.414
		s0.805,0.636,1.055,1.078V454.162z M322.578,457.404c0-0.589-0.212-1.093-0.635-1.512c-0.422-0.419-0.928-0.629-1.518-0.629
		c-0.574,0-1.076,0.208-1.504,0.625s-0.641,0.906-0.641,1.469c0,0.609,0.208,1.128,0.625,1.555c0.418,0.427,0.924,0.641,1.52,0.641
		c0.59,0,1.096-0.212,1.518-0.637C322.366,458.491,322.578,457.987,322.578,457.404z"/>
	<path d="M325.125,454.162h1.424l1.844,3.727l1.791-3.727h1.434l-3.246,6.688L325.125,454.162z"/>
	<path d="M337.906,454.162h1.359v6.445h-1.359v-1.281c-0.662,0.974-1.482,1.461-2.461,1.461c-0.85,0-1.574-0.333-2.176-1
		s-0.902-1.477-0.902-2.43c0-0.901,0.303-1.688,0.91-2.363c0.605-0.675,1.318-1.012,2.137-1.012c0.504,0,0.984,0.138,1.438,0.414
		s0.805,0.636,1.055,1.078V454.162z M338.094,457.404c0-0.589-0.212-1.093-0.635-1.512c-0.422-0.419-0.928-0.629-1.518-0.629
		c-0.574,0-1.076,0.208-1.504,0.625s-0.641,0.906-0.641,1.469c0,0.609,0.208,1.128,0.625,1.555c0.418,0.427,0.924,0.641,1.52,0.641
		c0.59,0,1.096-0.212,1.518-0.637C337.882,458.491,338.094,457.987,338.094,457.404z"/>
	<path d="M341.055,452.045c0-0.281,0.104-0.524,0.312-0.73c0.207-0.206,0.455-0.309,0.742-0.309c0.281,0,0.523,0.103,0.73,0.309
		c0.205,0.206,0.309,0.449,0.309,0.73c0,0.286-0.104,0.531-0.309,0.734c-0.207,0.203-0.449,0.305-0.73,0.305
		c-0.287,0-0.535-0.102-0.742-0.305C341.158,452.576,341.055,452.331,341.055,452.045z M341.438,454.162h1.344v6.445h-1.344V454.162
		z"/>
	<path d="M345,450.467h1.359v10.141H345V450.467z"/>
	<path d="M353.75,454.162h1.359v6.445h-1.359v-1.281c-0.662,0.974-1.482,1.461-2.461,1.461c-0.85,0-1.574-0.333-2.176-1
		s-0.902-1.477-0.902-2.43c0-0.901,0.303-1.688,0.91-2.363c0.605-0.675,1.318-1.012,2.137-1.012c0.504,0,0.984,0.138,1.438,0.414
		s0.805,0.636,1.055,1.078V454.162z M353.938,457.404c0-0.589-0.212-1.093-0.635-1.512c-0.422-0.419-0.928-0.629-1.518-0.629
		c-0.574,0-1.076,0.208-1.504,0.625s-0.641,0.906-0.641,1.469c0,0.609,0.208,1.128,0.625,1.555c0.418,0.427,0.924,0.641,1.52,0.641
		c0.59,0,1.096-0.212,1.518-0.637C353.726,458.491,353.938,457.987,353.938,457.404z"/>
	<path d="M357.359,450.467h1.344v4.969c0.578-0.969,1.406-1.453,2.484-1.453c0.832,0,1.555,0.333,2.168,1
		c0.611,0.667,0.918,1.458,0.918,2.375s-0.301,1.718-0.902,2.402s-1.305,1.027-2.105,1.027c-0.516,0-1.006-0.138-1.469-0.414
		c-0.465-0.276-0.828-0.651-1.094-1.125v1.359h-1.344V450.467z M362.836,457.357c0-0.589-0.211-1.093-0.633-1.512
		s-0.934-0.629-1.531-0.629c-0.578,0-1.08,0.212-1.504,0.637c-0.426,0.425-0.637,0.926-0.637,1.504c0,0.604,0.211,1.113,0.637,1.527
		c0.424,0.414,0.945,0.621,1.566,0.621c0.572,0,1.066-0.211,1.48-0.633S362.836,457.946,362.836,457.357z"/>
	<path d="M366.164,450.467h1.359v10.141h-1.359V450.467z"/>
	<path d="M375.922,457.646h-5.5c0.119,0.661,0.391,1.145,0.816,1.449c0.424,0.305,0.887,0.457,1.387,0.457
		c0.77,0,1.416-0.32,1.938-0.961l0.992,0.75c-0.746,0.964-1.742,1.445-2.992,1.445c-0.959,0-1.762-0.328-2.406-0.984
		c-0.646-0.656-0.969-1.472-0.969-2.445c0-0.911,0.326-1.702,0.98-2.371c0.652-0.669,1.451-1.004,2.395-1.004
		c0.926,0,1.721,0.34,2.383,1.02C375.605,455.682,375.932,456.563,375.922,457.646z M370.562,456.561h3.938
		c-0.438-0.886-1.084-1.328-1.938-1.328C371.629,455.232,370.963,455.675,370.562,456.561z"/>
	<path d="M382.336,452.287h1.359v1.875h1.344v1.242h-1.344v5.203h-1.359v-5.203h-1.07v-1.258h1.07V452.287z"/>
	<path d="M385.875,457.357c0-0.88,0.348-1.663,1.043-2.348s1.492-1.027,2.395-1.027c0.926,0,1.736,0.337,2.43,1.012
		c0.691,0.675,1.039,1.462,1.039,2.363c0,0.906-0.34,1.704-1.02,2.395s-1.465,1.035-2.355,1.035c-0.953,0-1.781-0.341-2.48-1.023
		C386.225,459.081,385.875,458.279,385.875,457.357z M391.469,457.361c0-0.548-0.209-1.024-0.625-1.429
		c-0.418-0.404-0.912-0.606-1.484-0.606c-0.59,0-1.096,0.205-1.52,0.614c-0.426,0.41-0.637,0.899-0.637,1.468
		c0,0.543,0.215,1.018,0.645,1.425s0.934,0.61,1.512,0.61c0.562,0,1.055-0.209,1.477-0.626
		C391.258,458.399,391.469,457.914,391.469,457.361z"/>
</g>
<g style="enable-background:new    ;">
	<path d="M188.398,471.487h1.359v1.875h1.344v1.242h-1.344v5.203h-1.359v-5.203h-1.07v-1.258h1.07V471.487z"/>
	<path d="M192,469.667h1.359v4.75c0.375-0.433,0.725-0.746,1.051-0.941c0.325-0.195,0.723-0.293,1.191-0.293
		c0.547,0,1.02,0.21,1.418,0.629s0.598,0.921,0.598,1.504v4.492h-1.359v-4.109c0-0.406-0.103-0.731-0.309-0.977
		c-0.206-0.245-0.478-0.367-0.816-0.367c-0.49,0-0.908,0.185-1.254,0.555c-0.347,0.37-0.52,0.817-0.52,1.344v3.555H192V469.667z"/>
	<path d="M205.742,476.847h-5.5c0.12,0.661,0.392,1.145,0.816,1.449c0.424,0.305,0.887,0.457,1.387,0.457
		c0.771,0,1.417-0.32,1.938-0.961l0.992,0.75c-0.745,0.964-1.742,1.445-2.992,1.445c-0.958,0-1.761-0.328-2.406-0.984
		c-0.646-0.656-0.969-1.472-0.969-2.445c0-0.911,0.327-1.702,0.98-2.371c0.653-0.669,1.452-1.004,2.395-1.004
		c0.927,0,1.721,0.34,2.383,1.02C205.426,474.882,205.752,475.764,205.742,476.847z M200.382,475.761h3.938
		c-0.438-0.886-1.083-1.328-1.938-1.328C201.45,474.433,200.783,474.875,200.382,475.761z"/>
	<path d="M217.085,473.362h1.328v6.188c0,0.911-0.314,1.687-0.941,2.324c-0.628,0.638-1.387,0.957-2.277,0.957
		c-0.677,0-1.3-0.184-1.867-0.551c-0.568-0.367-0.984-0.926-1.25-1.676h1.406c0.422,0.698,1.008,1.047,1.758,1.047
		c0.51,0,0.945-0.184,1.305-0.551s0.539-0.809,0.539-1.324v-1.219c-0.656,0.953-1.484,1.43-2.484,1.43
		c-0.823,0-1.541-0.34-2.152-1.02c-0.612-0.68-0.918-1.483-0.918-2.41s0.298-1.722,0.895-2.383c0.596-0.661,1.306-0.992,2.129-0.992
		c1.062,0,1.906,0.513,2.531,1.539V473.362z M217.273,476.573c0-0.604-0.21-1.109-0.629-1.516c-0.419-0.406-0.939-0.609-1.559-0.609
		c-0.568,0-1.068,0.211-1.5,0.633c-0.433,0.422-0.648,0.909-0.648,1.461c0,0.599,0.213,1.114,0.641,1.547
		c0.427,0.433,0.935,0.648,1.523,0.648c0.599,0,1.11-0.211,1.535-0.633C217.061,477.683,217.273,477.172,217.273,476.573z"/>
	<path d="M226.664,476.847h-5.5c0.12,0.661,0.392,1.145,0.816,1.449c0.424,0.305,0.887,0.457,1.387,0.457
		c0.771,0,1.417-0.32,1.938-0.961l0.992,0.75c-0.745,0.964-1.742,1.445-2.992,1.445c-0.958,0-1.761-0.328-2.406-0.984
		c-0.646-0.656-0.969-1.472-0.969-2.445c0-0.911,0.327-1.702,0.98-2.371c0.653-0.669,1.452-1.004,2.395-1.004
		c0.927,0,1.721,0.34,2.383,1.02C226.348,474.882,226.674,475.764,226.664,476.847z M221.304,475.761h3.938
		c-0.438-0.886-1.083-1.328-1.938-1.328C222.372,474.433,221.705,474.875,221.304,475.761z"/>
	<path d="M227.976,479.808v-6.445h1.328v1.07c0.391-0.433,0.745-0.749,1.062-0.949c0.317-0.2,0.672-0.301,1.062-0.301
		c0.583,0,1.082,0.192,1.496,0.578s0.621,0.849,0.621,1.391v4.656h-1.359v-4.258c0-0.349-0.113-0.638-0.34-0.867
		s-0.515-0.344-0.863-0.344c-0.453,0-0.844,0.191-1.172,0.574s-0.492,0.845-0.492,1.387v3.508H227.976z"/>
	<path d="M241.671,476.847h-5.5c0.12,0.661,0.392,1.145,0.816,1.449c0.424,0.305,0.887,0.457,1.387,0.457
		c0.771,0,1.417-0.32,1.938-0.961l0.992,0.75c-0.745,0.964-1.742,1.445-2.992,1.445c-0.958,0-1.761-0.328-2.406-0.984
		c-0.646-0.656-0.969-1.472-0.969-2.445c0-0.911,0.327-1.702,0.98-2.371c0.653-0.669,1.452-1.004,2.395-1.004
		c0.927,0,1.721,0.34,2.383,1.02C241.356,474.882,241.682,475.764,241.671,476.847z M236.312,475.761h3.938
		c-0.438-0.886-1.083-1.328-1.938-1.328C237.379,474.433,236.713,474.875,236.312,475.761z"/>
	<path d="M244.75,473.362v1.328c0.302-0.531,0.598-0.915,0.887-1.152s0.665-0.355,1.129-0.355c0.13,0,0.317,0.031,0.562,0.094
		l-0.414,1.359c-0.261-0.052-0.433-0.078-0.516-0.078c-0.458,0-0.843,0.16-1.152,0.48c-0.31,0.32-0.465,0.72-0.465,1.199v3.57
		h-1.359v-6.445H244.75z"/>
	<path d="M253.835,473.362h1.359v6.445h-1.359v-1.281c-0.662,0.974-1.482,1.461-2.461,1.461c-0.849,0-1.574-0.333-2.176-1
		s-0.902-1.477-0.902-2.43c0-0.901,0.303-1.688,0.91-2.363c0.606-0.675,1.319-1.012,2.137-1.012c0.505,0,0.984,0.138,1.438,0.414
		s0.805,0.636,1.055,1.078V473.362z M254.023,476.604c0-0.589-0.211-1.093-0.634-1.512c-0.423-0.419-0.929-0.629-1.519-0.629
		c-0.574,0-1.075,0.208-1.503,0.625s-0.642,0.906-0.642,1.469c0,0.609,0.208,1.128,0.626,1.555s0.924,0.641,1.519,0.641
		c0.59,0,1.096-0.212,1.519-0.637C253.812,477.691,254.023,477.188,254.023,476.604z"/>
	<path d="M257.421,469.667h1.359v10.141h-1.359V469.667z"/>
	<path d="M266.687,473.362v1.297c0.65-0.984,1.482-1.477,2.497-1.477c0.832,0,1.548,0.332,2.149,0.996
		c0.601,0.664,0.901,1.457,0.901,2.379c0,0.933-0.304,1.737-0.913,2.414c-0.608,0.677-1.326,1.016-2.153,1.016
		c-0.479,0-0.938-0.125-1.377-0.375s-0.802-0.612-1.088-1.086v4.305h-1.359v-9.469H266.687z M270.812,476.558
		c0-0.567-0.213-1.063-0.64-1.488s-0.928-0.637-1.505-0.637c-0.587,0-1.096,0.211-1.524,0.633c-0.429,0.422-0.644,0.919-0.644,1.492
		c0,0.589,0.212,1.099,0.636,1.531c0.423,0.433,0.924,0.648,1.501,0.648c0.598,0,1.11-0.214,1.536-0.641
		S270.812,477.156,270.812,476.558z"/>
	<path d="M273.75,473.362h1.359v3.633c0,1.12,0.492,1.68,1.477,1.68c0.438,0,0.784-0.149,1.039-0.449
		c0.255-0.3,0.383-0.71,0.383-1.23v-3.633h1.344v3.852c0,0.808-0.263,1.472-0.789,1.992c-0.526,0.521-1.198,0.781-2.016,0.781
		c-0.833,0-1.508-0.261-2.023-0.781s-0.773-1.2-0.773-2.039V473.362z"/>
	<path d="M281.203,469.667h1.344v4.969c0.578-0.969,1.406-1.453,2.484-1.453c0.833,0,1.556,0.333,2.168,1
		c0.612,0.667,0.918,1.458,0.918,2.375s-0.301,1.718-0.902,2.402s-1.304,1.027-2.105,1.027c-0.516,0-1.005-0.138-1.469-0.414
		c-0.464-0.276-0.828-0.651-1.094-1.125v1.359h-1.344V469.667z M286.679,476.558c0-0.589-0.211-1.093-0.633-1.512
		s-0.933-0.629-1.531-0.629c-0.578,0-1.08,0.212-1.504,0.637c-0.425,0.425-0.637,0.926-0.637,1.504c0,0.604,0.212,1.113,0.637,1.527
		c0.424,0.414,0.946,0.621,1.566,0.621c0.573,0,1.066-0.211,1.48-0.633S286.679,477.146,286.679,476.558z"/>
	<path d="M290.007,469.667h1.359v10.141h-1.359V469.667z"/>
	<path d="M293.078,471.245c0-0.281,0.104-0.524,0.312-0.73c0.208-0.206,0.456-0.309,0.742-0.309c0.281,0,0.524,0.103,0.73,0.309
		c0.206,0.206,0.309,0.449,0.309,0.73c0,0.286-0.103,0.531-0.309,0.734c-0.206,0.203-0.449,0.305-0.73,0.305
		c-0.287,0-0.534-0.102-0.742-0.305C293.182,471.776,293.078,471.531,293.078,471.245z M293.46,473.362h1.344v6.445h-1.344V473.362z
		"/>
	<path d="M301.671,477.839v1.555c-0.693,0.396-1.365,0.594-2.016,0.594c-0.891,0-1.671-0.335-2.34-1.004
		c-0.669-0.669-1.004-1.444-1.004-2.324c0-1,0.333-1.829,1-2.488c0.667-0.659,1.502-0.988,2.508-0.988
		c0.599,0,1.216,0.156,1.852,0.469v1.516c-0.683-0.438-1.328-0.656-1.938-0.656c-0.562,0-1.055,0.198-1.477,0.594
		s-0.633,0.859-0.633,1.391c0,0.599,0.198,1.103,0.594,1.512c0.396,0.409,0.88,0.613,1.453,0.613
		C300.254,478.62,300.921,478.359,301.671,477.839z"/>
	<path d="M303.671,477.839l1.68,0.656l-1.844,4l-1.211-0.477L303.671,477.839z"/>
	<path d="M314.805,469.769v1.375c-0.396-0.266-0.738-0.398-1.023-0.398c-0.24,0-0.428,0.088-0.562,0.265
		c-0.137,0.177-0.203,0.424-0.203,0.74v1.612h1.789v1.242h-1.789v5.203h-1.359v-5.203h-1.188v-1.242h1.188v-1.521
		c0-0.732,0.188-1.317,0.566-1.754c0.377-0.437,0.881-0.655,1.512-0.655C314.047,469.433,314.402,469.545,314.805,469.769z"/>
	<path d="M315.562,476.558c0-0.88,0.348-1.663,1.043-2.348s1.492-1.027,2.395-1.027c0.926,0,1.736,0.337,2.43,1.012
		c0.691,0.675,1.039,1.462,1.039,2.363c0,0.906-0.34,1.704-1.02,2.395s-1.465,1.035-2.355,1.035c-0.953,0-1.781-0.341-2.48-1.023
		C315.912,478.281,315.562,477.479,315.562,476.558z M321.156,476.562c0-0.548-0.209-1.024-0.625-1.429
		c-0.418-0.404-0.912-0.606-1.484-0.606c-0.59,0-1.096,0.205-1.52,0.614c-0.426,0.41-0.637,0.899-0.637,1.468
		c0,0.543,0.215,1.018,0.645,1.425s0.934,0.61,1.512,0.61c0.562,0,1.055-0.209,1.477-0.626
		C320.945,477.6,321.156,477.114,321.156,476.562z"/>
	<path d="M325.438,473.362v1.328c0.301-0.531,0.598-0.915,0.887-1.152s0.664-0.355,1.129-0.355c0.129,0,0.316,0.031,0.562,0.094
		l-0.414,1.359c-0.262-0.052-0.434-0.078-0.516-0.078c-0.459,0-0.844,0.16-1.152,0.48c-0.311,0.32-0.465,0.72-0.465,1.199v3.57
		h-1.359v-6.445H325.438z"/>
</g>
<g style="enable-background:new    ;">
	<path style="fill:#025296;" d="M334.609,469.55h5.773v1.984h-3.578v2.094h3.578v2h-3.562v4.18h-2.211V469.55z"/>
	<path style="fill:#025296;" d="M342.234,469.55h3.379c1.027,0,1.839,0.271,2.436,0.812c0.598,0.541,0.896,1.272,0.896,2.193
		c0,0.526-0.137,1.073-0.412,1.641c-0.273,0.567-0.777,1.012-1.514,1.335l2.871,4.276h-2.541l-2.654-3.969h-0.25v3.969h-2.211
		V469.55z M344.461,471.378v2.672h0.479c1.154,0,1.732-0.472,1.732-1.414c0-0.386-0.15-0.691-0.451-0.918s-0.717-0.34-1.25-0.34
		H344.461z"/>
	<path style="fill:#025296;" d="M351.602,469.55h5.773v2.031h-3.562v2.07h3.562v2h-3.562v2.125h3.562v2.031h-5.773V469.55z"/>
	<path style="fill:#025296;" d="M359.266,469.55h5.773v2.031h-3.562v2.07h3.562v2h-3.562v2.125h3.562v2.031h-5.773V469.55z"/>
</g>
<g style="enable-background:new    ;">
	<path d="M366.547,478.894c0-0.286,0.103-0.534,0.309-0.742c0.205-0.208,0.454-0.312,0.746-0.312c0.286,0,0.533,0.104,0.742,0.312
		c0.208,0.208,0.312,0.456,0.312,0.742c0,0.292-0.104,0.54-0.309,0.746c-0.206,0.206-0.455,0.309-0.746,0.309
		c-0.292,0-0.541-0.102-0.746-0.305C366.649,479.44,366.547,479.19,366.547,478.894z"/>
</g>
<rect x="164.196" y="398.105" style="fill:none;" width="254.341" height="22.367"/>
<g style="enable-background:new    ;">
	<path style="fill:#025296;" d="M177.191,398.366h5.068c1.541,0,2.759,0.406,3.655,1.218c0.896,0.812,1.343,1.909,1.343,3.292
		c0,0.789-0.206,1.608-0.616,2.46c-0.411,0.851-1.168,1.519-2.271,2.003l4.306,6.414h-3.811l-3.982-5.953h-0.375v5.953h-3.316
		V398.366z M180.531,401.108v4.008h0.717c1.733,0,2.599-0.707,2.599-2.121c0-0.578-0.226-1.037-0.676-1.377s-1.076-0.51-1.875-0.51
		H180.531z"/>
	<path style="fill:#025296;" d="M199.75,409.429h-7.184c0.039,0.648,0.252,1.176,0.639,1.582s0.838,0.609,1.354,0.609
		c0.922,0,1.645-0.418,2.168-1.254l2.754,0.914c-1.023,1.789-2.613,2.684-4.77,2.684c-1.586,0-2.848-0.48-3.785-1.441
		s-1.406-2.254-1.406-3.879c0-1.461,0.494-2.688,1.482-3.68s2.205-1.488,3.65-1.488c1.453,0,2.666,0.521,3.639,1.564
		s1.459,2.346,1.459,3.908V409.429z M192.589,407.413h4.055c-0.281-1.258-0.926-1.887-1.934-1.887c-0.578,0-1.057,0.164-1.436,0.492
		S192.667,406.812,192.589,407.413z"/>
	<path style="fill:#025296;" d="M209.054,413.179v-1.184c-0.898,1.141-1.938,1.711-3.117,1.711c-1.266,0-2.322-0.488-3.17-1.465
		s-1.271-2.199-1.271-3.668c0-1.422,0.439-2.631,1.318-3.627s1.936-1.494,3.17-1.494c1.047,0,2.07,0.547,3.07,1.641v-1.395h2.977
		v10.195c0,0.562-0.178,1.209-0.533,1.939s-0.961,1.27-1.816,1.617s-1.846,0.521-2.971,0.521c-1.398,0-2.518-0.262-3.357-0.785
		s-1.443-1.422-1.811-2.695h3.363c0.656,0.914,1.367,1.371,2.133,1.371c0.594,0,1.078-0.248,1.453-0.744
		S209.054,413.976,209.054,413.179z M204.695,408.655c0,0.516,0.225,1.018,0.674,1.506s0.975,0.732,1.576,0.732
		c0.586,0,1.088-0.232,1.506-0.697s0.627-1.033,0.627-1.705c0-0.688-0.199-1.254-0.598-1.699s-0.91-0.668-1.535-0.668
		c-0.633,0-1.166,0.232-1.6,0.697S204.695,407.897,204.695,408.655z"/>
	<path style="fill:#025296;" d="M214.785,399.942c0-0.51,0.184-0.948,0.551-1.316s0.809-0.553,1.324-0.553s0.957,0.185,1.324,0.553
		s0.551,0.807,0.551,1.316c0,0.518-0.184,0.96-0.551,1.328c-0.367,0.369-0.809,0.553-1.324,0.553s-0.957-0.184-1.324-0.553
		C214.968,400.902,214.785,400.46,214.785,399.942z M215.171,403.675h3v10.078h-3V403.675z"/>
	<path style="fill:#025296;" d="M228.683,405.093l-2.039,1.242c-0.589-0.594-1.138-0.891-1.648-0.891
		c-0.251,0-0.467,0.07-0.647,0.211c-0.181,0.14-0.271,0.312-0.271,0.514c0,0.328,0.104,0.566,0.313,0.714
		c0.208,0.148,0.763,0.377,1.664,0.687c0.901,0.311,1.611,0.707,2.13,1.191s0.779,1.156,0.779,2.016
		c0,0.867-0.391,1.611-1.172,2.232s-1.719,0.932-2.812,0.932c-0.742,0-1.482-0.207-2.221-0.621s-1.365-1.047-1.881-1.898
		l2.426-1.102c0.547,0.945,1.113,1.418,1.699,1.418c0.266,0,0.504-0.086,0.715-0.257c0.211-0.172,0.316-0.366,0.316-0.584
		c0-0.28-0.121-0.493-0.363-0.638c-0.242-0.146-0.422-0.218-0.539-0.218c-0.047-0.055-0.328-0.164-0.844-0.329
		c-2.016-0.657-3.023-1.725-3.023-3.201c0-0.891,0.361-1.619,1.084-2.186s1.666-0.85,2.83-0.85
		C226.468,403.476,227.636,404.015,228.683,405.093z"/>
	<path style="fill:#025296;" d="M231.507,400.218h3v3.457h1.441v2.754h-1.441v7.324h-3v-7.324h-1.148v-2.754h1.148V400.218z"/>
	<path style="fill:#025296;" d="M247.128,409.429h-7.184c0.039,0.648,0.252,1.176,0.639,1.582s0.838,0.609,1.354,0.609
		c0.922,0,1.645-0.418,2.168-1.254l2.754,0.914c-1.023,1.789-2.613,2.684-4.77,2.684c-1.586,0-2.848-0.48-3.785-1.441
		s-1.406-2.254-1.406-3.879c0-1.461,0.494-2.688,1.482-3.68s2.205-1.488,3.65-1.488c1.453,0,2.666,0.521,3.639,1.564
		s1.459,2.346,1.459,3.908V409.429z M239.968,407.413h4.055c-0.281-1.258-0.926-1.887-1.934-1.887c-0.578,0-1.057,0.164-1.436,0.492
		S240.046,406.812,239.968,407.413z"/>
	<path style="fill:#025296;" d="M252.097,403.675v1.488h0.047c0.297-0.5,0.643-0.896,1.037-1.189s0.76-0.439,1.096-0.439
		c0.203,0,0.387,0.016,0.551,0.047v3.281c-0.25-0.047-0.496-0.07-0.738-0.07c-0.617,0-1.096,0.217-1.436,0.65
		s-0.51,1.041-0.51,1.822v4.488h-3.047v-10.078H252.097z"/>
	<path style="fill:#025296;" d="M268.726,398.483v2.883c-0.453-0.305-0.844-0.457-1.172-0.457c-0.422,0-0.764,0.152-1.025,0.457
		s-0.393,0.699-0.393,1.184v1.125h2.566v2.73h-2.59v7.348h-3v-7.348h-0.891v-2.73h0.891v-1.23c0-1.711,0.363-2.869,1.09-3.475
		s1.578-0.908,2.555-0.908C267.531,398.062,268.187,398.202,268.726,398.483z"/>
	<path style="fill:#025296;" d="M270.144,408.737c0-1.555,0.496-2.824,1.488-3.809s2.266-1.477,3.82-1.477
		c1.445,0,2.658,0.502,3.639,1.506s1.471,2.248,1.471,3.732c0,1.516-0.49,2.773-1.471,3.773s-2.209,1.5-3.686,1.5
		c-1.664,0-2.957-0.529-3.879-1.588S270.144,410.104,270.144,408.737z M277.609,408.737c0-0.68-0.223-1.273-0.668-1.781
		s-0.965-0.762-1.559-0.762c-0.617,0-1.148,0.238-1.594,0.715s-0.668,1.047-0.668,1.711c0,0.727,0.221,1.344,0.662,1.852
		s0.975,0.762,1.6,0.762c0.594,0,1.113-0.248,1.559-0.744S277.609,409.409,277.609,408.737z"/>
	<path style="fill:#025296;" d="M286.011,403.675v1.488h0.047c0.297-0.5,0.643-0.896,1.037-1.189s0.76-0.439,1.096-0.439
		c0.203,0,0.387,0.016,0.551,0.047v3.281c-0.25-0.047-0.496-0.07-0.738-0.07c-0.617,0-1.096,0.217-1.436,0.65
		s-0.51,1.041-0.51,1.822v4.488h-3.047v-10.078H286.011z"/>
	<path style="fill:#025296;" d="M297.214,398.366h8.66v2.977h-5.367v3.141h5.367v3h-5.344v6.27h-3.316V398.366z"/>
	<path style="fill:#025296;" d="M308.535,403.698h3.047v4.828c0,0.695,0.177,1.275,0.531,1.74c0.354,0.465,0.793,0.697,1.314,0.697
		c0.553,0,1.018-0.225,1.396-0.674s0.567-1.014,0.567-1.693v-4.898h3.047v5.859c0,1.242-0.475,2.283-1.423,3.123
		s-2.128,1.26-3.54,1.26c-1.498,0-2.697-0.422-3.594-1.266c-0.897-0.844-1.346-1.965-1.346-3.363V403.698z"/>
	<path style="fill:#025296;" d="M321.426,398.108h3v15.645h-3V398.108z"/>
	<path style="fill:#025296;" d="M327.66,398.108h3v15.645h-3V398.108z"/>
	<path style="fill:#025296;" d="M345.623,398.366h2.568l6.27,15.387h-3.338l-1.231-3.023h-5.905l-1.206,3.023h-3.319
		L345.623,398.366z M346.908,403.405l-1.81,4.535h3.657L346.908,403.405z"/>
	<path style="fill:#025296;" d="M363.965,410.261v3c-1.031,0.469-1.887,0.703-2.566,0.703c-1.516,0-2.781-0.5-3.797-1.5
		s-1.523-2.25-1.523-3.75c0-1.508,0.471-2.758,1.412-3.75s2.135-1.488,3.58-1.488c1.008,0,1.984,0.234,2.93,0.703v2.836
		c-0.875-0.422-1.676-0.633-2.402-0.633c-0.672,0-1.213,0.205-1.623,0.615s-0.615,0.951-0.615,1.623
		c0,0.664,0.203,1.201,0.609,1.611s0.941,0.615,1.605,0.615C362.176,410.847,362.973,410.651,363.965,410.261z"/>
	<path style="fill:#025296;" d="M373.656,410.261v3c-1.031,0.469-1.887,0.703-2.566,0.703c-1.516,0-2.781-0.5-3.797-1.5
		s-1.523-2.25-1.523-3.75c0-1.508,0.471-2.758,1.412-3.75s2.135-1.488,3.58-1.488c1.008,0,1.984,0.234,2.93,0.703v2.836
		c-0.875-0.422-1.676-0.633-2.402-0.633c-0.672,0-1.213,0.205-1.623,0.615s-0.615,0.951-0.615,1.623
		c0,0.664,0.203,1.201,0.609,1.611s0.941,0.615,1.605,0.615C371.867,410.847,372.664,410.651,373.656,410.261z"/>
	<path style="fill:#025296;" d="M385.422,409.429h-7.184c0.039,0.648,0.252,1.176,0.639,1.582s0.838,0.609,1.354,0.609
		c0.922,0,1.645-0.418,2.168-1.254l2.754,0.914c-1.023,1.789-2.613,2.684-4.77,2.684c-1.586,0-2.848-0.48-3.785-1.441
		s-1.406-2.254-1.406-3.879c0-1.461,0.494-2.688,1.482-3.68s2.205-1.488,3.65-1.488c1.453,0,2.666,0.521,3.639,1.564
		s1.459,2.346,1.459,3.908V409.429z M378.262,407.413h4.055c-0.281-1.258-0.926-1.887-1.934-1.887c-0.578,0-1.057,0.164-1.436,0.492
		S378.34,406.812,378.262,407.413z"/>
	<path style="fill:#025296;" d="M394.949,405.093l-2.039,1.242c-0.59-0.594-1.139-0.891-1.648-0.891
		c-0.252,0-0.467,0.07-0.648,0.211c-0.18,0.14-0.27,0.312-0.27,0.514c0,0.328,0.104,0.566,0.312,0.714
		c0.209,0.148,0.764,0.377,1.664,0.687c0.9,0.311,1.611,0.707,2.131,1.191s0.779,1.156,0.779,2.016c0,0.867-0.391,1.611-1.172,2.232
		s-1.719,0.932-2.812,0.932c-0.742,0-1.482-0.207-2.221-0.621s-1.365-1.047-1.881-1.898l2.426-1.102
		c0.547,0.945,1.113,1.418,1.699,1.418c0.266,0,0.504-0.086,0.715-0.257c0.211-0.172,0.316-0.366,0.316-0.584
		c0-0.28-0.121-0.493-0.363-0.638c-0.242-0.146-0.422-0.218-0.539-0.218c-0.047-0.055-0.328-0.164-0.844-0.329
		c-2.016-0.657-3.023-1.725-3.023-3.201c0-0.891,0.361-1.619,1.084-2.186s1.666-0.85,2.83-0.85
		C392.734,403.476,393.902,404.015,394.949,405.093z"/>
	<path style="fill:#025296;" d="M405.191,405.093l-2.039,1.242c-0.59-0.594-1.139-0.891-1.648-0.891
		c-0.252,0-0.467,0.07-0.648,0.211c-0.18,0.14-0.27,0.312-0.27,0.514c0,0.328,0.104,0.566,0.312,0.714
		c0.209,0.148,0.764,0.377,1.664,0.687c0.9,0.311,1.611,0.707,2.131,1.191s0.779,1.156,0.779,2.016c0,0.867-0.391,1.611-1.172,2.232
		s-1.719,0.932-2.812,0.932c-0.742,0-1.482-0.207-2.221-0.621s-1.365-1.047-1.881-1.898l2.426-1.102
		c0.547,0.945,1.113,1.418,1.699,1.418c0.266,0,0.504-0.086,0.715-0.257c0.211-0.172,0.316-0.366,0.316-0.584
		c0-0.28-0.121-0.493-0.363-0.638c-0.242-0.146-0.422-0.218-0.539-0.218c-0.047-0.055-0.328-0.164-0.844-0.329
		c-2.016-0.657-3.023-1.725-3.023-3.201c0-0.891,0.361-1.619,1.084-2.186s1.666-0.85,2.83-0.85
		C402.977,403.476,404.145,404.015,405.191,405.093z"/>
</g>
</svg>
