<?xml version="1.0" encoding="UTF-8" standalone="no"?>
<svg
   xmlns:dc="http://purl.org/dc/elements/1.1/"
   xmlns:cc="http://creativecommons.org/ns#"
   xmlns:rdf="http://www.w3.org/1999/02/22-rdf-syntax-ns#"
   xmlns:svg="http://www.w3.org/2000/svg"
   xmlns="http://www.w3.org/2000/svg"
   xmlns:sodipodi="http://sodipodi.sourceforge.net/DTD/sodipodi-0.dtd"
   xmlns:inkscape="http://www.inkscape.org/namespaces/inkscape"
   inkscape:version="1.0 (4035a4f, 2020-05-01)"
   sodipodi:docname="CanLife_Blue.svg"
   version="1.1"
   id="svg2"
   xml:space="preserve"
   width="100"
   height="24.869282"
   viewBox="0 0 99.999999 24.869282"><sodipodi:namedview
     inkscape:current-layer="svg2"
     inkscape:window-maximized="0"
     inkscape:window-y="23"
     inkscape:window-x="0"
     inkscape:cy="114.80829"
     inkscape:cx="461.64667"
     inkscape:zoom="1"
     showgrid="false"
     id="namedview420"
     inkscape:window-height="1061"
     inkscape:window-width="2220"
     inkscape:pageshadow="2"
     inkscape:pageopacity="0"
     guidetolerance="10"
     gridtolerance="10"
     objecttolerance="10"
     borderopacity="1"
     bordercolor="#666666"
     pagecolor="#ffffff" /><metadata
     id="metadata8"><rdf:RDF><cc:Work
         rdf:about=""><dc:format>image/svg+xml</dc:format><dc:type
           rdf:resource="http://purl.org/dc/dcmitype/StillImage" /></cc:Work></rdf:RDF></metadata><defs
     id="defs6" /><g
     id="g10"
     transform="matrix(0.14441121,0,0,-0.14441121,-3.7564033e-8,24.869231)"><g
       id="g12"
       transform="scale(0.1)"><path
         d="m 4305.67,811.641 c 0,0 -37.53,-60.137 -103.97,-60.164 -69.52,-0.071 -119.49,61.961 -119.49,184.14 0,135.983 64.59,180.863 123.15,180.863 65.13,0 100.31,-63.34 100.31,-63.34 z m 0,320.939 c 0,0 -39.77,62.47 -137.5,62.47 -127.21,0 -216.6,-119.67 -216.6,-268.925 0,-166.594 92.77,-249.305 204.47,-249.305 112.97,0 154.78,73.18 154.78,73.18 v -60.551 h 121.77 v 685.101 h -126.92 v -241.97"
         style="fill:#0d4d84;fill-opacity:1;fill-rule:nonzero;stroke:none"
         id="path14" /><path
         d="m 2134.58,771.934 c -147.51,0 -232.47,111.488 -232.47,260.116 0,180.81 107.17,271.22 232.54,271.22 127.83,0 178.63,-101.93 178.63,-101.93 l 54.99,41.26 c 0,0 -44.41,144.48 -258.6,144.48 -196,0 -351.45,-151.71 -351.45,-360.77 0,-234.298 162.9,-350.38 338.91,-350.38 202.38,0 271.14,140.449 271.14,140.449 l -41.31,39.648 c 0,0 -54.9,-84.093 -192.38,-84.093"
         style="fill:#0d4d84;fill-opacity:1;fill-rule:nonzero;stroke:none"
         id="path16" /><path
         d="M 5344.83,1373.74 H 5209.52 V 689.629 h 437.53 v 93.828 h -302.22 v 590.283"
         style="fill:#0d4d84;fill-opacity:1;fill-rule:nonzero;stroke:none"
         id="path18" /><path
         d="m 6085.83,1204.82 c 0,87.01 42.17,109.71 78.84,109.71 23.66,0 44.99,-13.89 44.99,-13.89 l 25.23,44.32 c -18.28,15.97 -50.79,42.49 -122.95,42.49 -65.32,0 -119.78,-36.01 -141.67,-97.46 -10.31,-29.46 -11.31,-58.59 -10.31,-108.78 h -74.02 v -75.74 h 74.02 V 689.629 h 125.67 v 415.841 h 111 v 75.74 h -111 c 0,0 0.2,15.79 0.2,23.61"
         style="fill:#0d4d84;fill-opacity:1;fill-rule:nonzero;stroke:none"
         id="path20" /><path
         d="m 3207.81,1195.42 c -102.34,0 -158.04,-77.58 -158.04,-77.58 v 63.9 H 2923.82 V 689.629 h 125.95 v 367.551 c 9,14.27 49.4,59.64 105.03,59.64 45.47,0 69,-29.44 76.62,-56.76 4.91,-16.16 4.91,-33.25 4.91,-49.32 V 689.629 h 126.77 v 334.421 c 0,40.73 -2.85,88.9 -38.93,126.86 -25.47,26.49 -66.2,44.51 -116.36,44.51"
         style="fill:#0d4d84;fill-opacity:1;fill-rule:nonzero;stroke:none"
         id="path22" /><path
         d="m 2709.79,788.195 c -21.63,-16.465 -54.9,-34.648 -99.38,-34.648 -63.42,0 -87.28,44.023 -87.28,85.644 0,61.59 49.34,90.903 105.21,90.903 32.22,0 56.87,-8.5 81.45,-17.926 z m -89.08,407.505 c -139.2,0 -202.87,-107.36 -202.87,-107.36 l 35.97,-34.39 c 0,0 53.43,64.15 140.53,63.34 65.05,-0.59 115.21,-33.99 115.21,-117.622 0,-8.316 0.24,-15.664 0.24,-15.664 -33.18,11.109 -68,20.846 -114.47,20.846 -112.74,0 -204.6,-62.471 -204.6,-174.135 0,-94.582 73.02,-154.785 171.41,-154.785 87.62,0 136.36,47.09 152.91,68.125 v -54.426 h 118.97 c 0,0 0,121.191 0,282.187 0,168.804 -89.97,223.884 -213.3,223.884"
         style="fill:#0d4d84;fill-opacity:1;fill-rule:nonzero;stroke:none"
         id="path24" /><path
         d="m 3753.56,788.195 c -21.71,-16.465 -54.9,-34.648 -99.39,-34.648 -63.52,0 -87.12,44.023 -87.12,85.644 0,61.59 49.16,90.903 105.11,90.903 32.08,0 56.9,-8.5 81.4,-17.926 z m -88.9,407.505 c -139.33,0 -203.23,-107.36 -203.23,-107.36 l 36.23,-34.39 c 0,0 53.32,64.15 140.35,63.34 65.24,-0.59 115.31,-33.99 115.31,-117.622 0,-8.316 0.24,-15.664 0.24,-15.664 -33.14,11.109 -68.28,20.846 -114.65,20.846 -112.5,0 -204.46,-62.471 -204.46,-174.135 0,-94.582 72.85,-154.785 171.34,-154.785 87.71,0 136.48,47.09 153.1,68.125 v -54.426 h 118.86 c 0,0 0,121.191 0,282.187 0,168.804 -89.96,223.884 -213.09,223.884"
         style="fill:#0d4d84;fill-opacity:1;fill-rule:nonzero;stroke:none"
         id="path26" /><path
         d="m 4826.94,788.195 c -21.7,-16.465 -54.9,-34.648 -99.32,-34.648 -63.39,0 -87.16,44.023 -87.16,85.644 0,61.59 49.17,90.903 105.19,90.903 32.17,0 56.63,-8.5 81.29,-17.926 z m -88.88,407.505 c -139.39,0 -203.23,-107.36 -203.23,-107.36 l 36.23,-34.39 c 0,0 53.35,64.15 140.38,63.34 65.2,-0.59 115.2,-33.99 115.2,-117.622 0,-8.316 0.3,-15.664 0.3,-15.664 -33.09,11.109 -68.11,20.846 -114.39,20.846 -112.83,0 -204.64,-62.471 -204.64,-174.135 0,-94.582 72.89,-154.785 171.4,-154.785 87.49,0 136.28,47.09 152.88,68.125 v -54.426 h 118.9 c 0,0 0,121.191 0,282.187 0,168.804 -89.78,223.884 -213.03,223.884"
         style="fill:#0d4d84;fill-opacity:1;fill-rule:nonzero;stroke:none"
         id="path28" /><path
         d="m 6325.97,995.793 c 12.83,82.407 58.18,123.357 121.09,123.357 89.58,0 108.75,-69.54 110.36,-109.31 0.24,-6.48 0.39,-14.047 0.39,-14.047 z m 350,24.027 c -19.53,88.04 -78.29,175.76 -223.84,175.76 -155.01,0 -255.39,-121.74 -255.39,-258.26 0,-151.09 88.67,-261.449 261.04,-261.449 170.23,0 223.34,121.758 223.34,121.758 l -33.32,30.418 c 0,0 -49.32,-72.109 -168.85,-72.109 -100.56,0 -153.17,78.027 -155.79,166.808 h 361.98 c 0,0 2.76,44.512 -9.17,97.074"
         style="fill:#0d4d84;fill-opacity:1;fill-rule:nonzero;stroke:none"
         id="path30" /><path
         d="m 5699.03,689.629 h 125.96 V 1181.21 H 5699.03 V 689.629"
         style="fill:#0d4d84;fill-opacity:1;fill-rule:nonzero;stroke:none"
         id="path32" /><path
         d="m 5692.72,1319.03 c 0,37.18 30.82,67.36 68.91,67.36 38.04,0 68.74,-30.18 68.74,-67.36 0,-37.19 -30.7,-67.35 -68.74,-67.35 -38.09,0 -68.91,30.16 -68.91,67.35"
         style="fill:#0d4d84;fill-opacity:1;fill-rule:nonzero;stroke:none"
         id="path34" /><path
         d="m 6693.7,1357.68 h 95.42 v -17.82 h -37.41 v -99.99 h -20.64 v 99.99 h -37.37 v 17.82"
         style="fill:#0d4d84;fill-opacity:1;fill-rule:nonzero;stroke:none"
         id="path36" /><path
         d="m 6802.53,1357.68 h 29.01 l 32.51,-92.22 h 0.33 l 31.56,92.22 h 28.73 v -117.81 h -19.61 v 90.88 h -0.37 l -32.64,-90.88 h -16.92 l -32.76,90.88 h -0.36 v -90.88 h -19.48 v 117.81"
         style="fill:#0d4d84;fill-opacity:1;fill-rule:nonzero;stroke:none"
         id="path38" /><path
         d="m 1290.19,978.945 c -1.97,-6.543 -3.7,-14.078 -5.42,-22.734 C 1253.74,794.797 1131.31,626.898 946.941,547.988 874.18,516.82 798.961,499.852 724.566,499.02 l -16.414,-0.52 -0.062,4.641 16.379,0.371 c 54.484,5.738 109.078,18.297 161.836,41.039 158.225,67.859 269.415,199.59 316.285,352.203 v -0.063 c 0,0 4.1,13.211 7.04,24.258 0,0 -24,-0.312 -41.63,-32.941 -2.44,-4.5 -5.56,-9.11 -8.01,-14.586 C 1110.65,769.758 1023.63,683.07 909.813,634.398 833.695,601.801 753.793,588.852 676.621,595.199 l -16.391,0.449 0.176,4.571 16.375,-0.59 c 58.27,1.25 117.512,11.699 174.289,36.152 122.078,52.367 210.35,150.871 253.02,266.086 v 0 c 0,0 4.85,13 8.2,23.797 0,0 -23.93,0.988 -43.34,-30.469 -1.07,-1.914 -2.39,-3.621 -3.52,-5.629 C 1024.21,816.855 955.473,756.836 872.699,720.941 796.016,688.102 714.391,680.102 638.352,695.57 l -16.223,2.641 0.746,4.437 16.145,-2.628 c 58.652,-5.25 118.976,2.171 176.988,27.003 116.012,49.766 193.372,152.207 216.072,267.649 0,0 1.96,13.648 3.03,24.848 0,0 -23.6,-4 -35.887,-38.922 C 971.676,905.625 914.73,841.914 835.57,807.707 791.5,788.926 745.527,781.699 700.715,784.094 c -68.336,9.062 -121.02,67.383 -121.02,138.187 0,77.012 63.403,141.039 138.141,138.209 1.144,-0.06 4.68,-0.4 7.687,-2.14 l 1.411,3.04 c -38.598,53.04 -101.207,87.81 -171.836,87.81 -53.18,0 -101.77,-19.72 -139.051,-52.17 4.766,112.29 71.945,217.56 182.144,264.65 152.907,65.62 330.067,-5.12 395.789,-158.22 9.26,-23.92 13.67,-35.33 15.88,-45.57 3.62,-17.16 21.39,-27.73 21.39,-27.73 -1.38,10.42 -3.1,20.66 -5.15,30.99 l 0.08,-0.04 c -5.41,19.05 -9.59,31.18 -17.22,48.86 -80.05,186.6 -296.194,273.21 -482.862,193.24 -57.774,-24.69 -104.637,-63.27 -141.18,-109.12 l -9.012,-13.71 -3.781,2.48 9.012,13.65 c 41.32,65.44 103.336,118.95 179.793,151.7 200.746,86.26 433.457,-6.82 519.49,-207.57 6.87,-16.09 26.39,-22.85 26.39,-22.85 -3.36,9.86 -7.06,19.63 -11.14,29.28 -101.283,236.29 -374.967,345.78 -611.291,244.45 -57.106,-24.36 -105.363,-59.9 -146.406,-101.5 l -10.996,-12.09 -3.36,3.04 10.977,12.1 c 48.609,60.23 113.164,109.24 189.285,141.87 248.523,106.54 535.891,-9.12 642.351,-257.91 3.91,-10.98 7.76,-19.64 11.36,-26.46 8.21,-15.44 25.57,-24.01 25.57,-24.01 -3.04,10.05 -6.31,19.95 -9.98,29.82 l 0.07,-0.07 c -3.61,9.43 -7.13,18.74 -11.07,27.92 -122.57,285.86 -453.864,418.36 -739.735,295.81 -52.699,-22.74 -99.246,-53.75 -140.867,-89.15 l -11.883,-11.23 -3.113,3.23 11.801,11.38 c 51.953,53.17 115.789,96.26 188.387,127.4 296.39,127.1 639.88,-10.24 766.78,-306.87 6.33,-13.98 11.65,-28.31 16.4,-42.46 28.42,-86.81 23.68,-91.53 27.69,-110.23 3.7,-17.15 20.32,-31.04 20.32,-31.04 -0.82,10.44 -1.8,20.83 -3.37,31.29 h 0.1 c -7.61,58.25 -21.79,102.29 -45.97,158.9 -144.05,335.55 -532.615,491.13 -867.993,347.17 C 65.1016,1524.64 -90.1602,1135.9 53.6367,800.402 197.434,464.93 586.074,309.43 921.449,453.172 c 234.421,100.469 376.191,319.289 396.911,541.5 l -0.07,-0.149 c 0,0 1.3,13.797 1.81,25.087 0,0 -19.5,-5.21 -29.91,-40.665 z M 605.16,1123.03 c 19.512,0 35.481,-15.86 35.481,-35.49 0,-19.61 -15.969,-35.42 -35.481,-35.42 -19.664,0 -35.566,15.81 -35.566,35.42 0,19.63 15.902,35.49 35.566,35.49"
         style="fill:#0d4d84;fill-opacity:1;fill-rule:nonzero;stroke:none"
         id="path40" /><path
         d="m 2073.12,238.898 c 29.98,0 54.74,1.832 76.9,23.372 15.64,14.75 22.82,35.039 22.82,55.32 0,24.601 -9.77,44.879 -31.28,58.43 -19.56,12.921 -38.46,13.531 -61.92,13.531 H 1968.18 V 238.898 Z M 2174.79,13.2383 2092.02,195.891 H 1968.18 V 13.2383 h -56.04 V 435.059 h 167.5 c 36.49,0 71.68,-4.309 101.68,-25.84 29.96,-21.528 47.56,-56.571 47.56,-92.25 0,-49.778 -31.28,-94.649 -83.42,-108.188 l 87.99,-195.5427 h -58.66"
         style="fill:#0d4d84;fill-opacity:1;fill-rule:nonzero;stroke:none"
         id="path42" /><path
         d="m 2073.12,238.898 c 29.98,0 54.74,1.832 76.9,23.372 15.64,14.75 22.82,35.039 22.82,55.32 0,24.601 -9.77,44.879 -31.28,58.43 -19.56,12.921 -38.46,13.531 -61.92,13.531 H 1968.18 V 238.898 Z M 2174.79,13.2383 2092.02,195.891 H 1968.18 V 13.2383 h -56.04 V 435.059 h 167.5 c 36.49,0 71.68,-4.309 101.68,-25.84 29.96,-21.528 47.56,-56.571 47.56,-92.25 0,-49.778 -31.28,-94.649 -83.42,-108.188 l 87.99,-195.5427 z"
         style="fill:none;stroke:#0d4d84;stroke-width:14.2258;stroke-linecap:butt;stroke-linejoin:miter;stroke-miterlimit:4;stroke-dasharray:none;stroke-opacity:1"
         id="path44" /><path
         d="m 2659.7,201.391 c 0.66,51.648 -29.97,95.3 -88.63,95.3 -55.41,0 -91.26,-46.089 -93.21,-95.3 z M 2710.54,98.7188 C 2691,41.5391 2632.98,7.10938 2569.77,7.10938 c -100.38,0 -151.88,75.00002 -151.88,162.30062 0,86.078 54.11,164.18 153.18,164.18 102.98,0 147.28,-81.16 144.68,-167.86 h -240.49 c 0,-24.609 1.3,-47.332 13.69,-70.6987 15.63,-29.5118 50.17,-47.3399 84.73,-47.3399 43.02,0 74.29,23.3399 88.63,60.2576 l 48.23,-9.2302"
         style="fill:#0d4d84;fill-opacity:1;fill-rule:nonzero;stroke:none"
         id="path46" /><path
         d="m 2659.7,201.391 c 0.66,51.648 -29.97,95.3 -88.63,95.3 -55.41,0 -91.26,-46.089 -93.21,-95.3 z M 2710.54,98.7188 C 2691,41.5391 2632.98,7.10938 2569.77,7.10938 c -100.38,0 -151.88,75.00002 -151.88,162.30062 0,86.078 54.11,164.18 153.18,164.18 102.98,0 147.28,-81.16 144.68,-167.86 h -240.49 c 0,-24.609 1.3,-47.332 13.69,-70.6987 15.63,-29.5118 50.17,-47.3399 84.73,-47.3399 43.02,0 74.29,23.3399 88.63,60.2576 z"
         style="fill:none;stroke:#0d4d84;stroke-width:14.2258;stroke-linecap:butt;stroke-linejoin:miter;stroke-miterlimit:4;stroke-dasharray:none;stroke-opacity:1"
         id="path48" /><path
         d="m 2979.71,13.2383 h -50.82 V 325.59 h 50.82 z m 2.62,367.7027 h -56.05 v 54.118 h 56.05 v -54.118"
         style="fill:#0d4d84;fill-opacity:1;fill-rule:nonzero;stroke:none"
         id="path50" /><path
         d="m 2979.71,13.2383 h -50.82 V 325.59 h 50.82 z m 2.62,367.7027 h -56.05 v 54.118 h 56.05 z"
         style="fill:none;stroke:#0d4d84;stroke-width:14.2258;stroke-linecap:butt;stroke-linejoin:miter;stroke-miterlimit:4;stroke-dasharray:none;stroke-opacity:1"
         id="path52" /><path
         d="m 3256.06,267.809 h 1.31 c 18.9,38.742 56.04,65.781 102.97,65.781 39.77,0 72.99,-16 93.86,-48.602 16.97,-26.386 15.67,-68.199 15.67,-98.957 V 13.2383 H 3419 V 206.34 c 0,18.422 0.68,41.808 -9.12,57.789 -11.08,17.82 -35.18,28.281 -56.7,28.281 -26.74,0 -50.83,-11.699 -68.42,-31.359 -21.52,-24.621 -26.07,-52.879 -26.07,-84.25 V 13.2383 h -50.86 V 325.59 h 48.23 v -57.781"
         style="fill:#0d4d84;fill-opacity:1;fill-rule:nonzero;stroke:none"
         id="path54" /><path
         d="m 3256.06,267.809 h 1.31 c 18.9,38.742 56.04,65.781 102.97,65.781 39.77,0 72.99,-16 93.86,-48.602 16.97,-26.386 15.67,-68.199 15.67,-98.957 V 13.2383 H 3419 V 206.34 c 0,18.422 0.68,41.808 -9.12,57.789 -11.08,17.82 -35.18,28.281 -56.7,28.281 -26.74,0 -50.83,-11.699 -68.42,-31.359 -21.52,-24.621 -26.07,-52.879 -26.07,-84.25 V 13.2383 h -50.86 V 325.59 h 48.23 z"
         style="fill:none;stroke:#0d4d84;stroke-width:14.2258;stroke-linecap:butt;stroke-linejoin:miter;stroke-miterlimit:4;stroke-dasharray:none;stroke-opacity:1"
         id="path56" /><path
         d="m 3722.72,105.488 c 7.2,-42.4177 59.99,-58.4489 99.77,-58.4489 35.15,0 80.13,11.6992 80.13,51.6797 0,33.2032 -35.85,42.4022 -64.51,47.3512 l -54.1,9.192 c -50.87,9.226 -97.15,31.379 -97.15,86.707 0,64.582 63.25,91.621 123.86,91.621 59.34,0 114.7,-20.891 130.98,-78.719 l -46.89,-9.223 c -13.02,34.442 -46.96,49.204 -84.74,49.204 -29.96,0 -70.42,-11.082 -70.42,-45.5 0,-33.84 30.04,-41.18 59.34,-45.5 l 48.23,-7.961 c 24.1,-4.321 48.89,-8.641 69.07,-21.532 26.1,-16.597 39.78,-42.437 39.78,-70.718 0,-70.7426 -72.99,-96.53162 -137.53,-96.53162 -64.55,0 -128.39,25.19142 -145.35,89.14062 l 49.53,9.238"
         style="fill:#0d4d84;fill-opacity:1;fill-rule:nonzero;stroke:none"
         id="path58" /><path
         d="m 3722.72,105.488 c 7.2,-42.4177 59.99,-58.4489 99.77,-58.4489 35.15,0 80.13,11.6992 80.13,51.6797 0,33.2032 -35.85,42.4022 -64.51,47.3512 l -54.1,9.192 c -50.87,9.226 -97.15,31.379 -97.15,86.707 0,64.582 63.25,91.621 123.86,91.621 59.34,0 114.7,-20.891 130.98,-78.719 l -46.89,-9.223 c -13.02,34.442 -46.96,49.204 -84.74,49.204 -29.96,0 -70.42,-11.082 -70.42,-45.5 0,-33.84 30.04,-41.18 59.34,-45.5 l 48.23,-7.961 c 24.1,-4.321 48.89,-8.641 69.07,-21.532 26.1,-16.597 39.78,-42.437 39.78,-70.718 0,-70.7426 -72.99,-96.53162 -137.53,-96.53162 -64.55,0 -128.39,25.19142 -145.35,89.14062 z"
         style="fill:none;stroke:#0d4d84;stroke-width:14.2258;stroke-linecap:butt;stroke-linejoin:miter;stroke-miterlimit:4;stroke-dasharray:none;stroke-opacity:1"
         id="path60" /><path
         d="m 4419.44,13.2383 h -46.25 v 62.1015 h -1.31 C 4355.6,36.6016 4315.84,7.10938 4270.22,7.10938 c -32.61,0 -63.88,11.03902 -84.72,35.05082 -22.19,25.8086 -26.09,61.4808 -26.09,93.4488 V 325.59 h 50.85 V 135.609 c 0,-17.828 1.31,-41.1988 11.07,-57.1871 9.77,-17.2227 32.59,-29.5117 53.45,-29.5117 27.35,0 50.83,11.6679 68.42,31.9492 20.22,23.4026 25.44,49.2106 25.44,78.7306 v 166 h 50.8 V 13.2383"
         style="fill:#0d4d84;fill-opacity:1;fill-rule:nonzero;stroke:none"
         id="path62" /><path
         d="m 4419.44,13.2383 h -46.25 v 62.1015 h -1.31 C 4355.6,36.6016 4315.84,7.10938 4270.22,7.10938 c -32.61,0 -63.88,11.03902 -84.72,35.05082 -22.19,25.8086 -26.09,61.4808 -26.09,93.4488 V 325.59 h 50.85 V 135.609 c 0,-17.828 1.31,-41.1988 11.07,-57.1871 9.77,-17.2227 32.59,-29.5117 53.45,-29.5117 27.35,0 50.83,11.6679 68.42,31.9492 20.22,23.4026 25.44,49.2106 25.44,78.7306 v 166 h 50.8 z"
         style="fill:none;stroke:#0d4d84;stroke-width:14.2258;stroke-linecap:butt;stroke-linejoin:miter;stroke-miterlimit:4;stroke-dasharray:none;stroke-opacity:1"
         id="path64" /><path
         d="m 4689.3,325.59 v -73.16 h 1.29 c 15.65,42.422 43.67,81.789 97.12,81.789 l 18.9,-1.239 v -46.121 h -10.42 c -39.1,0 -66.48,-17.82 -85.4,-49.16 -13.69,-22.777 -16.28,-42.449 -16.28,-67.039 V 13.2383 h -50.85 V 325.59 h 45.64"
         style="fill:#0d4d84;fill-opacity:1;fill-rule:nonzero;stroke:none"
         id="path66" /><path
         d="m 4689.3,325.59 v -73.16 h 1.29 c 15.65,42.422 43.67,81.789 97.12,81.789 l 18.9,-1.239 v -46.121 h -10.42 c -39.1,0 -66.48,-17.82 -85.4,-49.16 -13.69,-22.777 -16.28,-42.449 -16.28,-67.039 V 13.2383 h -50.85 V 325.59 Z"
         style="fill:none;stroke:#0d4d84;stroke-width:14.2258;stroke-linecap:butt;stroke-linejoin:miter;stroke-miterlimit:4;stroke-dasharray:none;stroke-opacity:1"
         id="path68" /><path
         d="m 5191.76,170.66 h -42.28 c -52.18,0 -134.32,-6.75 -134.32,-71.3319 0,-38.75 35.18,-54.7265 71.72,-54.7265 62.6,0 104.88,50.4297 104.88,105.7504 z m 0,36.262 v 13.527 c 0,54.742 -25.36,75.641 -84.04,75.641 -41.68,0 -81.45,-12.32 -90.59,-55.36 l -47.56,7.418 c 9.12,65.161 82.08,85.442 142.73,85.442 35.87,0 76.88,-3.699 101.69,-30.731 27.34,-27.668 27.34,-67.031 27.34,-102.687 V 79.0195 c 0,-22.7187 0.64,-45.4687 7.2,-65.7812 h -50.85 l -5.92,58.4219 C 5168.34,26.7695 5128.55,7.10938 5075.77,7.10938 c -61.91,0 -115.32,32.60152 -115.32,94.67162 0,37.508 24.76,71.328 61.22,86.688 37.17,16.59 86.05,18.453 127.11,18.453 h 42.98"
         style="fill:#0d4d84;fill-opacity:1;fill-rule:nonzero;stroke:none"
         id="path70" /><path
         d="m 5191.76,170.66 h -42.28 c -52.18,0 -134.32,-6.75 -134.32,-71.3319 0,-38.75 35.18,-54.7265 71.72,-54.7265 62.6,0 104.88,50.4297 104.88,105.7504 z m 0,36.262 v 13.527 c 0,54.742 -25.36,75.641 -84.04,75.641 -41.68,0 -81.45,-12.32 -90.59,-55.36 l -47.56,7.418 c 9.12,65.161 82.08,85.442 142.73,85.442 35.87,0 76.88,-3.699 101.69,-30.731 27.34,-27.668 27.34,-67.031 27.34,-102.687 V 79.0195 c 0,-22.7187 0.64,-45.4687 7.2,-65.7812 h -50.85 l -5.92,58.4219 C 5168.34,26.7695 5128.55,7.10938 5075.77,7.10938 c -61.91,0 -115.32,32.60152 -115.32,94.67162 0,37.508 24.76,71.328 61.22,86.688 37.17,16.59 86.05,18.453 127.11,18.453 z"
         style="fill:none;stroke:#0d4d84;stroke-width:14.2258;stroke-linecap:butt;stroke-linejoin:miter;stroke-miterlimit:4;stroke-dasharray:none;stroke-opacity:1"
         id="path72" /><path
         d="m 5511.21,267.809 h 1.3 c 18.84,38.742 56.02,65.781 102.97,65.781 39.71,0 72.94,-16 93.86,-48.602 16.92,-26.386 15.65,-68.199 15.65,-98.957 V 13.2383 h -50.88 V 206.34 c 0,18.422 0.66,41.808 -9.11,57.789 -11.06,17.82 -35.18,28.281 -56.71,28.281 -26.73,0 -50.82,-11.699 -68.44,-31.359 -21.53,-24.621 -26.06,-52.879 -26.06,-84.25 V 13.2383 h -50.85 V 325.59 h 48.27 v -57.781"
         style="fill:#0d4d84;fill-opacity:1;fill-rule:nonzero;stroke:none"
         id="path74" /><path
         d="m 5511.21,267.809 h 1.3 c 18.84,38.742 56.02,65.781 102.97,65.781 39.71,0 72.94,-16 93.86,-48.602 16.92,-26.386 15.65,-68.199 15.65,-98.957 V 13.2383 h -50.88 V 206.34 c 0,18.422 0.66,41.808 -9.11,57.789 -11.06,17.82 -35.18,28.281 -56.71,28.281 -26.73,0 -50.82,-11.699 -68.44,-31.359 -21.53,-24.621 -26.06,-52.879 -26.06,-84.25 V 13.2383 h -50.85 V 325.59 h 48.27 z"
         style="fill:none;stroke:#0d4d84;stroke-width:14.2258;stroke-linecap:butt;stroke-linejoin:miter;stroke-miterlimit:4;stroke-dasharray:none;stroke-opacity:1"
         id="path76" /><path
         d="M 6190.99,116.531 C 6179.26,53.1992 6134.28,7.10938 6063.24,7.10938 c -98.45,0 -140.82,80.51952 -140.82,162.30062 0,81.192 43.01,164.18 141.45,164.18 71.72,0 116.01,-43.641 127.12,-108.219 l -46.98,-8.012 c -4.53,41.243 -31.26,75.641 -78.83,75.641 -69.13,0 -88.66,-68.238 -88.66,-120.512 0,-50.398 16.31,-124.1989 85.35,-124.1989 49.57,0 73.72,33.8203 82.14,76.2499 l 46.98,-8.008"
         style="fill:#0d4d84;fill-opacity:1;fill-rule:nonzero;stroke:none"
         id="path78" /><path
         d="M 6190.99,116.531 C 6179.26,53.1992 6134.28,7.10938 6063.24,7.10938 c -98.45,0 -140.82,80.51952 -140.82,162.30062 0,81.192 43.01,164.18 141.45,164.18 71.72,0 116.01,-43.641 127.12,-108.219 l -46.98,-8.012 c -4.53,41.243 -31.26,75.641 -78.83,75.641 -69.13,0 -88.66,-68.238 -88.66,-120.512 0,-50.398 16.31,-124.1989 85.35,-124.1989 49.57,0 73.72,33.8203 82.14,76.2499 z"
         style="fill:none;stroke:#0d4d84;stroke-width:14.2258;stroke-linecap:butt;stroke-linejoin:miter;stroke-miterlimit:4;stroke-dasharray:none;stroke-opacity:1"
         id="path80" /><path
         d="m 6609.4,201.391 c 0.64,51.648 -30.01,95.3 -88.63,95.3 -55.4,0 -91.27,-46.089 -93.2,-95.3 z M 6660.22,98.7188 C 6640.66,41.5391 6582.67,7.10938 6519.46,7.10938 c -100.38,0 -151.87,75.00002 -151.87,162.30062 0,86.078 54.09,164.18 153.18,164.18 102.97,0 147.31,-81.16 144.65,-167.86 h -240.51 c 0,-24.609 1.36,-47.332 13.73,-70.6987 15.61,-29.5118 50.17,-47.3399 84.71,-47.3399 43.01,0 74.33,23.3399 88.67,60.2576 l 48.2,-9.2302"
         style="fill:#0d4d84;fill-opacity:1;fill-rule:nonzero;stroke:none"
         id="path82" /><path
         d="m 6609.4,201.391 c 0.64,51.648 -30.01,95.3 -88.63,95.3 -55.4,0 -91.27,-46.089 -93.2,-95.3 z M 6660.22,98.7188 C 6640.66,41.5391 6582.67,7.10938 6519.46,7.10938 c -100.38,0 -151.87,75.00002 -151.87,162.30062 0,86.078 54.09,164.18 153.18,164.18 102.97,0 147.31,-81.16 144.65,-167.86 h -240.51 c 0,-24.609 1.36,-47.332 13.73,-70.6987 15.61,-29.5118 50.17,-47.3399 84.71,-47.3399 43.01,0 74.33,23.3399 88.67,60.2576 z"
         style="fill:none;stroke:#0d4d84;stroke-width:14.2258;stroke-linecap:butt;stroke-linejoin:miter;stroke-miterlimit:4;stroke-dasharray:none;stroke-opacity:1"
         id="path84" /></g></g></svg>
