<?xml version="1.0" encoding="UTF-8" standalone="no"?>
<svg
   xmlns:dc="http://purl.org/dc/elements/1.1/"
   xmlns:cc="http://creativecommons.org/ns#"
   xmlns:rdf="http://www.w3.org/1999/02/22-rdf-syntax-ns#"
   xmlns:svg="http://www.w3.org/2000/svg"
   xmlns="http://www.w3.org/2000/svg"
   xmlns:sodipodi="http://sodipodi.sourceforge.net/DTD/sodipodi-0.dtd"
   xmlns:inkscape="http://www.inkscape.org/namespaces/inkscape"
   inkscape:version="1.0 (4035a4f, 2020-05-01)"
   sodipodi:docname="HannoverRe.svg"
   xml:space="preserve"
   viewBox="0 0 100.10058 19.458732"
   height="19.458731"
   width="100.10058"
   y="0px"
   x="0px"
   id="Layer_1"
   version="1.1"><metadata
   id="metadata184"><rdf:RDF><cc:Work
       rdf:about=""><dc:format>image/svg+xml</dc:format><dc:type
         rdf:resource="http://purl.org/dc/dcmitype/StillImage" /><dc:title></dc:title></cc:Work></rdf:RDF></metadata><defs
   id="defs182" /><sodipodi:namedview
   inkscape:current-layer="Layer_1"
   inkscape:window-maximized="0"
   inkscape:window-y="23"
   inkscape:window-x="0"
   inkscape:cy="11.016999"
   inkscape:cx="54.555001"
   inkscape:zoom="7.6681973"
   fit-margin-bottom="0"
   fit-margin-right="0"
   fit-margin-left="0"
   fit-margin-top="0"
   showgrid="false"
   id="namedview180"
   inkscape:window-height="1226"
   inkscape:window-width="2246"
   inkscape:pageshadow="2"
   inkscape:pageopacity="0"
   guidetolerance="10"
   gridtolerance="10"
   objecttolerance="10"
   borderopacity="1"
   bordercolor="#666666"
   pagecolor="#ffffff" />
<g
   transform="matrix(0.89089951,0,0,0.94911375,-12.508229,-12.291023)"
   id="g177">
	<path
   id="path155"
   d="m 16.306,12.95 h 1.282 l -1.125,10.011 h 0.043 c 0.665,-1.362 2.051,-2.483 3.653,-2.483 3.075,0 3.465,2.616 3.162,5.312 l -0.824,7.342 h -1.282 l 0.816,-7.262 c 0.225,-2.001 -0.005,-3.95 -2.034,-3.95 -1.901,0 -3.603,1.655 -3.983,5.044 l -0.693,6.167 H 14.04 Z" />
	<path
   id="path157"
   d="m 33.629,27.953 c -0.27,2.402 -0.381,3.764 -0.39,5.179 h -1.196 c -0.017,-0.614 0.019,-1.309 0.097,-2.003 h -0.043 c -0.902,1.576 -2.054,2.323 -3.721,2.323 -1.686,0 -3.363,-1.041 -3.07,-3.657 0.423,-3.764 3.989,-4.138 5.933,-4.138 h 1.494 l 0.085,-0.747 c 0.239,-2.136 -0.861,-2.99 -2.442,-2.99 -1.153,0 -2.186,0.453 -3.166,1.387 l -0.625,-1.094 c 1.065,-1.121 2.672,-1.735 3.954,-1.735 2.392,0 3.779,1.334 3.428,4.458 z M 31.18,26.938 c -2.135,0 -4.347,0.668 -4.583,2.776 -0.17,1.522 0.917,2.296 1.984,2.296 2.734,0 3.685,-2.189 3.916,-4.245 l 0.093,-0.827 z" />
	<path
   id="path159"
   d="m 36.926,24.268 c 0.102,-0.907 0.211,-2.829 0.283,-3.47 h 1.281 c -0.08,0.908 -0.173,1.922 -0.156,2.163 h 0.063 c 0.667,-1.362 2.051,-2.483 3.653,-2.483 3.075,0 3.465,2.616 3.162,5.312 l -0.825,7.342 h -1.282 l 0.816,-7.261 c 0.225,-2.002 -0.005,-3.951 -2.034,-3.951 -1.901,0 -3.602,1.655 -3.983,5.044 l -0.693,6.167 H 35.93 Z" />
	<path
   id="path161"
   d="m 48.267,24.268 c 0.102,-0.907 0.211,-2.829 0.282,-3.47 h 1.282 c -0.08,0.908 -0.173,1.922 -0.157,2.163 h 0.064 c 0.666,-1.362 2.051,-2.483 3.653,-2.483 3.075,0 3.464,2.616 3.162,5.312 l -0.824,7.342 h -1.281 l 0.815,-7.261 c 0.225,-2.002 -0.004,-3.951 -2.034,-3.951 -1.9,0 -3.602,1.655 -3.982,5.044 l -0.693,6.167 h -1.282 z" />
	<path
   id="path163"
   d="m 64.668,20.478 c 3.032,0 4.883,2.723 4.461,6.486 -0.423,3.765 -2.886,6.487 -5.919,6.487 -3.031,0 -4.882,-2.723 -4.46,-6.487 0.422,-3.763 2.885,-6.486 5.918,-6.486 M 63.373,32.01 c 2.413,0 4.163,-2.269 4.475,-5.046 0.312,-2.775 -0.928,-5.044 -3.342,-5.044 -2.412,0 -4.162,2.269 -4.473,5.044 -0.314,2.778 0.926,5.046 3.34,5.046" />
	<polygon
   id="polygon165"
   points="74.736,33.131 73.412,33.131 70.761,20.798 72.214,20.798 74.312,31.396 78.705,20.798 80.009,20.798 " />
	<path
   id="path167"
   d="m 88.265,29.821 c -0.792,1.335 -2.255,2.189 -3.557,2.189 -2.991,0 -3.366,-3.311 -3.216,-4.646 h 8.286 l 0.126,-1.121 c 0.322,-2.856 -0.953,-5.766 -3.986,-5.766 -2.883,0 -5.245,2.776 -5.659,6.46 -0.429,3.817 1.256,6.514 4.266,6.514 1.752,0 3.355,-0.774 4.568,-2.643 z m -6.611,-3.898 c 0.072,-0.641 1.24,-4.003 4.038,-4.003 1.9,0 3.213,1.815 2.968,4.003 z" />
	<path
   id="path169"
   d="m 92.434,24.268 c 0.103,-0.907 0.212,-2.829 0.284,-3.47 h 1.28 c -0.08,0.908 -0.174,1.922 -0.157,2.163 0.803,-1.442 1.945,-2.483 3.418,-2.483 0.256,0 0.484,0.054 0.732,0.134 l -0.326,1.574 c -0.184,-0.08 -0.352,-0.106 -0.479,-0.106 -2.222,0 -3.441,1.922 -3.712,4.324 l -0.755,6.728 h -1.282 z" />
	<path
   id="path171"
   d="m 118.823,28.833 c -0.636,0.908 -1.415,1.574 -2.463,1.574 -1.237,0 -2.046,-0.987 -2.129,-2.508 h 7.431 l 0.141,-1.255 c 0.466,-4.139 -1.115,-6.808 -4.104,-6.808 -3.203,0 -6.065,2.669 -6.531,6.808 -0.465,4.138 1.799,6.807 5.003,6.807 1.664,0 3.457,-0.935 4.664,-2.562 z m -4.288,-3.657 c 0.227,-1.255 1.131,-2.457 2.54,-2.457 1.153,0 1.861,1.121 1.688,2.457 z m -10.008,-5.018 h 3.204 l -0.234,2.083 h 0.042 c 0.861,-1.576 1.852,-2.403 3.261,-2.403 0.363,0 0.767,0.026 1.054,0.133 l -0.412,3.658 c -0.431,-0.16 -0.867,-0.268 -1.336,-0.268 -2.436,0 -2.932,1.762 -3.222,4.352 l -0.61,5.419 h -3.204 z"
   style="fill:#005698" />
	<path
   id="path173"
   d="m 124.164,15.539 c -1.075,0 -1.949,0.875 -1.949,1.949 0,1.074 0.874,1.949 1.949,1.949 1.075,0 1.948,-0.875 1.948,-1.949 0,-1.074 -0.873,-1.949 -1.948,-1.949 z m 0,4.184 c -1.232,0 -2.235,-1.003 -2.235,-2.235 0,-1.233 1.003,-2.236 2.235,-2.236 1.232,0 2.235,1.003 2.235,2.236 0,1.232 -1.003,2.235 -2.235,2.235 z" />
	<path
   id="path175"
   d="m 123.796,17.233 h 0.387 c 0.409,0 0.47,-0.214 0.47,-0.342 0,-0.128 -0.061,-0.342 -0.47,-0.342 h -0.387 z m 1.314,1.386 h -0.381 l -0.636,-1.073 h -0.298 v 1.073 h -0.331 v -2.382 h 0.653 c 0.716,0 0.866,0.356 0.866,0.655 0,0.333 -0.191,0.553 -0.541,0.626 z" />
</g>
</svg>
